/* XPM */
static char *_2faa064e5854f6bee8f3760ed4c52edgTt0qhicYO78yEUi[] = {
/* columns rows colors chars-per-pixel */
"60 60 185 2 ",
"   c #3E2E2C",
".  c #3E302E",
"X  c #332436",
"o  c #3A2A32",
"O  c #3F2E3B",
"+  c #3F3131",
"@  c #3E313E",
"#  c #4C2E07",
"$  c #4E3009",
"%  c #52330E",
"&  c #562C1E",
"*  c #4F3015",
"=  c #513217",
"-  c #593C14",
";  c #5B3C1E",
":  c #673C19",
">  c #462C2A",
",  c #43312E",
"<  c #593122",
"1  c #5F352F",
"2  c #492D31",
"3  c #433332",
"4  c #4B3534",
"5  c #493937",
"6  c #44343C",
"7  c #4D3B3E",
"8  c #533D36",
"9  c #5D3B36",
"0  c #543E39",
"q  c #5A3F38",
"w  c #653730",
"e  c #653C34",
"r  c #6B3F37",
"t  c #643D3C",
"y  c #5B441C",
"u  c #60421C",
"i  c #6A401F",
"p  c #70511C",
"a  c #5F4024",
"s  c #5D4B23",
"d  c #51412D",
"f  c #564533",
"g  c #594434",
"h  c #574935",
"j  c #54413D",
"k  c #5B443C",
"l  c #5D493C",
"z  c #694528",
"x  c #684D29",
"c  c #704627",
"v  c #774B29",
"b  c #724F2C",
"n  c #6E5627",
"m  c #6C522A",
"M  c #6E5A2C",
"N  c #745425",
"B  c #7B5226",
"V  c #725A25",
"C  c #75552A",
"Z  c #7B532C",
"A  c #745A2B",
"S  c #795B2B",
"D  c #6B4D36",
"F  c #65423E",
"G  c #68413D",
"H  c #79473E",
"J  c #764D3D",
"K  c #675434",
"L  c #6C5634",
"P  c #6D5639",
"I  c #6F5A3A",
"U  c #755333",
"Y  c #7A5435",
"T  c #735A35",
"R  c #7E5A35",
"E  c #765439",
"W  c #7A5539",
"Q  c #735C3C",
"!  c #7A5A3B",
"~  c #7D602F",
"^  c #7A603E",
"/  c #3F3141",
"(  c #443545",
")  c #473844",
"_  c #493B46",
"`  c #463848",
"'  c #523F41",
"]  c #564341",
"[  c #5A4542",
"{  c #5C4944",
"}  c #614343",
"|  c #614C45",
" . c #6F4A42",
".. c #734D43",
"X. c #7B4D44",
"o. c #755245",
"O. c #7B5345",
"+. c #735E41",
"@. c #7D5E44",
"#. c #765249",
"$. c #7B544A",
"%. c #7A5A48",
"&. c #766542",
"*. c #7C6344",
"=. c #7A6946",
"-. c #7E634C",
";. c #7E6D4B",
":. c #81562C",
">. c #835A2F",
",. c #805032",
"<. c #845D36",
"1. c #845539",
"2. c #856529",
"3. c #89662E",
"4. c #8C6C2C",
"5. c #8E702F",
"6. c #836434",
"7. c #8C6235",
"8. c #876B32",
"9. c #8C6A33",
"0. c #86633B",
"q. c #8A643B",
"w. c #866A3A",
"e. c #896C3D",
"r. c #926B3C",
"t. c #8D7035",
"y. c #8D7239",
"u. c #9A7B3E",
"i. c #824E45",
"p. c #805146",
"a. c #865B43",
"s. c #8B5E42",
"d. c #815048",
"f. c #825C4C",
"g. c #8B5E49",
"h. c #855F54",
"j. c #836644",
"k. c #8C6344",
"l. c #836846",
"z. c #8C6942",
"x. c #8E624A",
"c. c #836849",
"v. c #8C6B49",
"b. c #926146",
"n. c #916D45",
"m. c #92654A",
"M. c #93684E",
"N. c #8D704C",
"B. c #977D45",
"V. c #9C7D44",
"C. c #9D7D4A",
"Z. c #836751",
"A. c #8A6551",
"S. c #856953",
"D. c #8B6D54",
"F. c #8C655B",
"G. c #936752",
"H. c #8A7054",
"J. c #947651",
"K. c #937A50",
"L. c #987A56",
"P. c #9F7E56",
"I. c #947A5B",
"U. c #9B7E59",
"Y. c #A07F4B",
"T. c #A07F4C",
"R. c #A07E53",
"E. c #A37E56",
"W. c #A07F59",
"Q. c #9B7E61",
"!. c #9D8047",
"~. c #9B8249",
"^. c #9D844A",
"/. c #9B824C",
"(. c #9D844D",
"). c #9C8354",
"_. c #9A8159",
"`. c #A18146",
"'. c #A1804C",
"]. c #A2824E",
"[. c #A2844C",
"{. c #A3825B",
"}. c #A2825E",
"|. c #A4845E",
" X c #9F8261",
/* pixels */
"2.2.3.9.'.'.'.3.3.3.3.T.C.'.].T.T.].].T.].].Y.'.Y.Y.T.T.T.'.R.R.}.|.|.|.L.M.N.c.l.# # % % *.*.H.D.I.Q. X_. X_.W.E.W.E.E.",
"2.2.9.3.'.'.].3.3.3.3.!.'.].'.T.T.].].].].].Y.'.Y.Y.T.T.'.'.R.R.W.W.W.|.L.N.N.l.l.$ # % % *.*.D.S. XQ. X X XU.{.E.E.E.E.",
"7.9.r.r.T.T.'.t.9.9.7.V.V.T.T.Y.T.'.T.T.Y.].Y.Y.Y.T.T.T.'.'.R.R.L.E.P.E.J.N.N.c.c.# # $ $ ;.;.H.H.K.I._.U.U.W.W.E.|.|.|.",
"9.9.t.t.T.'.'.9.r.9.9.V.V.'.T.T.T.'.T.].Y.Y.Y.Y.T.T.T.T.'.'.R.R.E.E.L.E.J.N.N.c.c.# # $ $ -.Z.H.H.I.H.I.U.U.W.W.|.|.E.W.",
"J J X.O.f.d.f.J O.J ..X.X.f.p.$.$.$.O.O.#.$.$.$.f.p.$.p.$.O.Z Y Y Z Y Y O.j.j.Z.Z.* * = = S.S.-.-.%.%.W W E Z U Z b Y v ",
"J J O.O.f.$.$.X.X.E J O.O.p.O.$.p.O.O.O.X.$.f.O.O.p.$.#.$.O.Z Y Z U Y Y ! j.%.Z.c.* * = = Z.-.-.-.@.@.E U E Z U U C Z Z ",
"X.X.$.$.O.O.X.O.$.O.O.X...O.O.J J J ..J J J X.X.O.O.o.W X.J Y Z v Z U b E j.a.Z.S.= = = * S.S.-.-.+.o.T U U U U Z R ,.1.",
"! ! R R U U U ! ! ! ! U U Y ! ! R ! R W Y ! ! ! ! <.Y ! ! Y 1.1.R Y Z Y W j.c.D.D.< y ; < H.S.;.-.Q ! E W Y W ,.R R R Y ",
"! ! ! ! U U U ! ! ! ! E U ! Y ! ! ! ! ! ! E Y ! ! ! ! R ! ! R <.R Z U Z W c.c.D.H.; y < < D.S.-.-.! ! W Y Y R W 1.R R R ",
"U U U Y C U b b b U U U U U U U Y U Y U U C C U b b U U Y U Y C v Z C Y W *.*.D.D.a a a x c.S.-.-.+.Q E U U U C N b c c ",
"Y T U U U U U x b C b U T U U U U U E U U U C x b U U U Y U Z Z Z C U C R j.j.D.D.a z z x Z.Z.-.Z.! @.U T C C Y N v p c ",
"e.e.6.6.e.e.w.S S ~ S e.e.e.e.6.w.w.w.w.w.S S ~ R R 6.~ w.w.e.k.n.v.z.z.j.j.j.v.c.- - u y -.c.j.j.j.j.c.l.z.m.v.n.n.n.n.",
"e.e.w.6.e.e.w.S S S ~ e.e.w.w.w.w.w.w.w.w.~ ~ ~ ~ ~ 6.6.e.e.z.e.v.v.e.q.z.l.j.v.v.- - u u j.c.c.l.j.j.z.l.z.v.n.n.n.n.n.",
"w.w.~ 6.e.z.w.p p N p w.w.w.w.w.w.w.w.w.w.6.S S S ~ ~ ~ e.e.6.0.w.k.z.l.j.0.j.c.D.y - x x c.j.c.c.l.l.j.w.j.q.j.0.w.0.k.",
"w.w.~ ~ y.e.e.p p N N w.w.w.6.w.w.w.e.w.w.~ S S S V ~ 6.e.e.0.0.j.q.e.l.0.l.j.v.z.y u x x j.c.c.c.j.l.j.j.j.0.0.q.e.0.0.",
"t t F t } t t t G t F t F t G t t t t t t t t t t G t t t t e e w w e e e e t e t F t e q t t e 9 e t G e e e t e e w w ",
"t t t t t t t t t t t t t t t t t t t t t t t t t t t t t t t r e e w e 9 e e e t t F 9 e F F 9 9 t t G e e e k G G w w ",
"F t t t t t G t t t t t t t t t t t t t t t F F t t t t t t w w e e F e G F G F G t q e q G G q q G G e 1 1 1 1 e e r r ",
"F t t t F t t } F t t t F t t t t F t t t t t t t t t t F t w w e w F e r G G t G q t e q G F F e } G F 1 1 1 1 e G e G ",
"/.C.~.~.!.P.~.~./.C.~.~.~.P.~.~./.!.C.).~.~.^.~.P.C.~.~.~.^.8.8.y.y.B.B.~./././././././././.~.^./.[.).B.t.t.w.t.B.u.).).",
"/.!.^.~.~.~.~.~./.!.!.^.!.~.~.~.!.~./.^.~.~.~.~.~.~.~.^.~.~.8.8.y.y.~.B.!.).)./././././.!./././././.(.B.y.w.t.y.B.B.^./.",
"!.(.^.^.(.!.^.^././.^.(.(./.(.(.(.(.(.(.^.(.^.(.^.(./.(.~./.3.8.n.c.B.B./././.C./.(.(.).(.)./.).~.).(.~.y.y.y.y.B.B.'./.",
"W E E E W E W E E E E E W E E E E E E E E E E E E E E W E E  . .#.#.$.%.$.$.%.#.#.#...#.%.$.$.#.#.$.%.#. . . . .$.#.%.#.",
"E E W E E E E E W E E E E E W W E W W E E W E W W E E E E E  . .#.#.$.%.$.$.#.#.o.o.#.O.O.$.$.#.#.$.$.X. . .#.#.$.$.#.$.",
"E E U E E E U W E E E E E J U E E U E E Y J E E E E E E E E #.#.$.#.$.#.#.#.o...o...o.O.#.#.#.o...#.o.%.#.#.#.#.$.$.#.#.",
"E E J W E E E J U J E E E U J W U J E E Y J E E E E E U E E #.#.#.%.$.$.#.#.O.o...O.o.o.$.#.%.....#.o.O.#...#.#.$.$.#.#.",
"W W W W Y W Y U E W W W W W W W W W Y W Y Y Y W W U W W Y E C C V N N C A C C S S S S S S S S p N C C S C C C A S S C N ",
"W W W W W W W W Y E Y W W Y W Y W Y W W W U E W E W W E U Y C N N C N C A C C S S S S S S B S N N N C S N C A C T A N N ",
"Y W W E Y J U Y W U J Y Y W U Y Y W J Y W U W E Y W W U W W C R C A C C C S C C C N N N N V S p N S C R C C C C A S C C ",
"H Y W W W Y U W Y E Y Y E Y W Y Y E Y Y Y Y W Y E Y W W W Y S A R C C C C C C C C N N N N S S N N C S S N N C C S C C N ",
"J U E W W E W U U m L C C T T L A ^ ! x x -.P E o.E %.#.D D E E L U T o.T b U E E b U ! ! Y U ! ! U U U ! ! R Y Y Y Y Y ",
"U J E E E E E U U C D L C L T C L ^ Q x x %.P P +.o.$.#.D D E Q J U +.T J U U T E U U ! ! U U ! ! R Y U <.! Y Y Y Y R 1.",
"W W H W W ! O.T ! T Q T T T A m m T T m x &.L D E P $.%.E o.Q Q E P E +.E T ! j.@.U U E E U U ! ! U U U Y R Y Y C b W W ",
"W W W O.W W ! ! ! T T T T T T m n T Q x x @.D m J P %.%.o.o.Q ! E E O.+.E ! W @.@.U U E E U Y ! 1.R Y U W Y R U Y U 1.W ",
"7.7.7.7.7.7.7.q.7.q.q.7.7.6.6.q.e.r.z.w.q.z.Z Z Z Z 0.0.7.0.x.m.s.s.b.b.s.k.g.x.x.,.,.,.Z b.x.M.m.b.m.1.b.b.b.b.s.q.n.m.",
"7.7.7.7.7.7.7.q.7.7.9.7.6.6.7.q.q.n.n.7.q.e.Z S Z :.q.<.0.7.x.x.a.s.x.k.s.s.k.x.k.,.,.v v x.b.m.m.m.b.s.b.b.b.b.b.b.m.b.",
"r.r.n.r.b.r.r.q.r.<.9.w.q.q.w.6.<.6.6.0.0.0.S B <.S 0.0.n.n.m.x.k.s.v.A.M.M.x.v.M.1.1.1.1.g.b.M.M.b.b.b.m.m.b.b.b.q.m.m.",
"' 9 0 ] 0 ] 0 6 6 6 3 @ 6 ( ( ) ` / / ) 6 6 o o o   3 6 3 3 , > , , j j j j ] { [ 8 8 ] k 8 8 k j q g 0 k l k k 9 9 0 q ",
"q q ' j ' ' _ 6 6 6 O @ O ( ( ) ) / ( ) _ 6 o o o o 5 3 3 3 , , , , j j ] ] j [ [ 0 8 0 q 8 5 k 0 0 8 8 l l l k 8 8 q q ",
"' ' } [ [ [ ' 6 6 O O O O / O / O X X _ _ 6 6 ) 6 6 6 6 > 3 4 , , 4 k k ] j ] ] [ 0 8 ] k [ ] [ l j 0 q { | | | k [ [ { ",
"[ [ ] k [ [ ] 6 6 6 6 6 o 6 / O 6 X X _ _ ) 6 6 6 6 3 6 + , , 4 4 3 j { ] j j k [ 7 8 j k k k [ { 8 g g | | F | { l l F ",
"!.'.(.'.P./._.U.L.I.I.D.D.Z.c.* % % % ! &.0.K.K.).).)././.(.'./.~.~.[.{.!.~.~.V.V.t.5.t.t.C.C.u.u.5.9.4.u.u.`.`.Y.u.!.`.",
"'.[.'.'./.).).U.L.I.I.D.D.c.Z.% = % % ^ ! =.K.K._.).).)./././.!.B.B.[.[.!.!.!.V.V.t.5.5.t.!.V.u.u.5.5.4.u.u.Y.`.u.u.`.u.",
"'./.C.B.C.C._.|.}.Q.Q.D.D.@.j.$ $ $ % *.l.v.)._.)._.).)./.~.(.[.~.u.[.[./.!.!.!.B.4.4.2.2.[.[.u.u.4.4.4.u.V.`.[.[.`.[.`.",
"'.!.C.C.C.C.).|.|.Q.Q.D.D.*.*.# # $ % k.c.v._.L.).).).).~.~.(.'.~.!.^.[.C.C.C.C.C.3.4.2.2.[.[.V.V.4.4.4.u.u.`.`.`.`.[.`.",
"B :.:.:.,.R Y W W ! O.h.h.F.F.& & < < f.%.G.Y Y Y ! S Z v v #.$.o.X.O.X.$.i.i.d.p.$.d.X.W H H X.X.p.i.p.p.p.i.X.p.p.i.a.",
"B :.:.:.,.,.,.W W O.1.h.h.F.F.& & < < f.f.D.Y Y Y Y R Z B B X.$.X.X.X.X.$.$.X.d.d.$.X.X.X.H H i.X.p.p.p.p.p.i.i.i.i.i.i.",
":.:.B B :.Z Y W Y O.O.h.h.F.F.& < < < f.f.A.J U R R <.Y Y Z $.$.$.$.X...X.X.X.X.X.X.X...X.i.i.i.p.p.p.p.p.p.H i.i.1.i.i.",
"B :.:.:.:.Z Z W E O.@.h.h.F.F.< & < < f.f.A.U U R U S R Z Z %.o.$.X...X.....X.X...X.X...X.X.X.d.d.i.O.p.i.X.X.i.O.X.i.i.",
"N p V V p V n A M T T &.=.;.;.y s s s =.;.;.M T M M A A A M &.I +.+.+.I E +.+.+.+.&.Q Q Q E Q I Q L L T T T T T I ^ T Q ",
"V V V V n V n M M T T &.&.;.;.s s s s =.=.;.T M M M A M M M I I P +.P I P +.+.+.&.I ^ Q Q I I I P T L L T Q T Q T T Q Q ",
"V V V V V V m M M T T &.&.=.=.y y s s &.=.=.T M M M n U R M K K K K K P P P P P P L K L L I I L L L L L T T T T U U L C ",
"b.b.b.b.m.b.m.b.x.m.m.M.x.M.m.: : c z x.k.M.x.x.A.m.x.x.G.G.v.v.n.v.n.v.k.z.z.0.0.R <.Z Z z.z.z.z.n.n.q.m.q.q.q.>.>.B B ",
"b.b.b.b.b.m.b.m.x.m.m.z.M.M.M.: : : z k.x.A.x.x.m.G.x.x.G.G.n.v.n.m.v.z.k.v.z.0.0.<.R Z Z z.n.z.z.q.b.b.q.b.q.q.>.>.B B ",
"b.b.b.b.g.b.b.k.x.s.a.g.k.k.k.: z c c g.a.g.x.x.g.m.a.a.g.g.k.0.z.k.k.j.z.0.k.<.0.Z R Z Z <.<.0.7.q.k.r.q.q.0.<.:.>.B B ",
"b.b.b.b.b.x.b.k.k.k.k.k.g.k.k.z : c z a.a.s.x.x.m.x.a.a.g.g.k.k.k.j.k.j.z.k.j.0.0.,.Z Z Z <.<.7.0.q.q.q.k.q.7.<.>.S B C ",
"} } } F k F k g F k l g h g g d d d d F l ] { l [ { 4 4 4 4 2 o . . + + 3 3 3 3 3 , ,     3 3 5 5 ] j [ { { ] ] ] ] ] ] ",
"} } [ F F k k l h g l g h d g d d d d l l k { { } } 4 4 0 4 o ,   . + + 3 3 3 5 3 3 ,     3 3 5 5 j ] [ ] { ] { ] ] ] ] ",
"} } q F q q q 9 g g g g g h g g h f h g l f j k 0 [ > > 2 2 3 3 + + + 3 + 3 3 3 3 3 , 3 , , , 5 5 j j ] ] j j ] ] ] ] ] ",
"F } ' q q q q k g g g g g g g g h f f l k 8 k k } k > > 2 2 3 3 3 + 3 + . 3 3 3 3 , , , , . , 5 5 5 j ] ] ] ] j ] ] ] ] "
};
