/* XPM */
static char *c9f131b6c6134d4eac2ace47fd56f89fYiV1Faigoqu9LIMA[] = {
/* columns rows colors chars-per-pixel */
"60 60 124 2 ",
"   c #625F57",
".  c #656155",
"X  c #6B6356",
"o  c #66635B",
"O  c #6B645C",
"+  c #6D695E",
"@  c #71665C",
"#  c #72695E",
"$  c #656562",
"%  c #6B6660",
"&  c #676863",
"*  c #6C6A64",
"=  c #716760",
"-  c #736A65",
";  c #7F7464",
":  c #7D766B",
">  c #7F786B",
",  c #807155",
"<  c #827458",
"1  c #847665",
"2  c #887567",
"3  c #847966",
"4  c #8A7C66",
"5  c #82766B",
"6  c #8A7769",
"7  c #837A6D",
"8  c #8B7C6C",
"9  c #847C72",
"0  c #897E73",
"q  c #89806F",
"w  c #91836E",
"e  c #868074",
"r  c #898175",
"t  c #8B8379",
"y  c #938272",
"u  c #938C7D",
"i  c #8B8781",
"p  c #8E8A85",
"a  c #8F8D89",
"s  c #948D84",
"d  c #988E83",
"f  c #938E89",
"g  c #998F89",
"h  c #969085",
"j  c #9A9284",
"k  c #95918C",
"l  c #9A938B",
"z  c #969591",
"x  c #9B9691",
"c  c #9D9893",
"v  c #A59B85",
"b  c #A7978A",
"n  c #A49A8C",
"m  c #A99E8C",
"M  c #A49D94",
"N  c #A99F95",
"B  c #A59F99",
"V  c #ACA58E",
"C  c #A6A294",
"Z  c #ACA394",
"A  c #AEA993",
"S  c #A6A19B",
"D  c #ABA198",
"F  c #A9A399",
"G  c #ADA099",
"H  c #ABA598",
"J  c #ADA79B",
"K  c #ACA79D",
"L  c #ADA79E",
"P  c #ADA899",
"I  c #AFAA9B",
"U  c #AFAA9C",
"Y  c #AFAA9F",
"T  c #B0A790",
"R  c #B0A495",
"E  c #B0A893",
"W  c #B2A992",
"Q  c #B3A997",
"!  c #B4AB94",
"~  c #B0A39B",
"^  c #B2A69B",
"/  c #B1A59D",
"(  c #B1AB9A",
")  c #B2AC98",
"_  c #B2AC9B",
"`  c #B4AC9A",
"'  c #B1A99E",
"]  c #B3AD9E",
"[  c #B9AF9F",
"{  c #A7A5A1",
"}  c #AAA6A1",
"|  c #ABA9A2",
" . c #B1AAA1",
".. c #B3AAA1",
"X. c #B3ABA1",
"o. c #B2ACA0",
"O. c #BCAEA0",
"+. c #B8ACA4",
"@. c #BDBBB1",
"#. c #C1BBAC",
"$. c #C3BAB1",
"%. c #C1BBB2",
"&. c #C2BBB2",
"*. c #C4BAB2",
"=. c #C5BEB5",
"-. c #C6BDB6",
";. c #C8BFB6",
":. c #C5BFB9",
">. c #C8BFBA",
",. c #C6C0B7",
"<. c #C8C1B2",
"1. c #C9C0B7",
"2. c #CBC5B5",
"3. c #CCC5B6",
"4. c #C6C1BA",
"5. c #CBC2B9",
"6. c #CBC2BB",
"7. c #CCC2BA",
"8. c #CCC3BA",
"9. c #CAC4BA",
"0. c #CBC4BB",
"q. c #C9C3BD",
"w. c #D0C7BE",
"e. c #D1CBBC",
/* pixels */
"9 9 0 0 5 5 +.+.^ } N G G N >.>.1.;.;.5.1.5.5.9.9.P F K H K F K H ! T ! ! V V v v A A R E m ] ` E ) I G R L A Z ) | D Z ",
"9 9 0 0 7 5 +.+.^ ^ G G B N 5.q.1.;.;.1.1.5.9.9.9.H F H K F K F H T T ! ! V T v v T ! T E b ` ` R L ! ( ^ A A H ( Y P H ",
"r 0 7 7 ; ; / / G G ........7.;.;.;.;.-.&.,.-.,.,.K K Y Y L { Y L T A v V T ! T ! A T ( Q A Z A Z Z Z R Z Z N N Z A C Z ",
"0 e 7 7 ; 1 ~ / G G ......] 7.1.;.;.,.-.,.,.$.,.,.K K Y Y Y K K L T V V m ! T ! T T ! ( T A R P Z m H H Z Z N Z I H Z C ",
"> 7 0 0 0 0 G G ^ ' $.$.$.$.q.-.=.5.0.0.0.5.q.w.w.-.$.>.:.q.;.-.-.A H I I 2.2.<.<.A I C V A A I I I X.] G I H Y I L H N ",
"9 9 0 0 9 0 L L ' ' $.$.$.$.7.-.-.9.5.1.0.5.>.e.w.$.$.7.:.q.7.-.-.I A H H 2.2.<.:.Z A C C I I I I ) X.) ) ..Y H ' H N N ",
"9 9 5 5 9 8 N N ' ' ;.;.7.7.7.>.1.&.&.<.,.&.=.,.;.;.-.>.7.7.5.7.q.C Z ) ( 2.2.<.<.( ( Z D Z H H P Z H H H D Z D ' ' G G ",
"e 9 5 5 7 9 N N ' ' 1.;.7.7.:.q.1.&.&.-.-.=.=.,.4.-.-.4.4.7.>.q.5.Z Z ] ) 2.4.4.<.( ( Z A M A A Z Z I H S D D Z ' Y H Z ",
"7 7 u u h u I P C M c c t u 9 : : 0 9 0 0 i i 0 9 0 0 9 9 9 9 0 0 > > 9 9 9 e e 9 h s l k 5 9 : d h l k h h x n K H } F ",
"7 7 u h h h P P n M c v u u 9 ; : 9 0 t 9 0 0 0 0 0 9 9 5 9 9 9 0 > 9 > > 9 > t 0 h s h g 9 : 9 k s l l g g c l K K L L ",
"> ; h u l j | ] H I j j u u t r i - - 9 5 9 9 - : 9 0 5 9 5 9 9 9 t r r t e > > > l l l z 7 t 0 s s s s s u k h N B M B ",
"; ; h h l l ] ] I I j n u u t r i 5 5 : 5 9 5 5 : 9 9 5 5 9 5 9 9 e t r t > e > > l l l l 9 0 0 s h s s s s l l F B B F ",
"q q u u u u I H M C 9 7 : : : : - 9 9 0 9 0 t 9 2 g g g f g g g g f f a h z k h k k a h k i a f k k l z l g f f x x x x ",
"q q u u u u I I M C 9 9 : : > : 5 9 9 9 0 0 9 9 6 g g g g g g g l h a s a z k k s a k a k i a g k k z x k k f g c c x x ",
"3 ; j j u u ] ) H H 7 7 > > r e 9 5 9 5 5 5 5 5 2 g g g g g g g s x z i i k z z z p a l z x g k s f k h g g p p g s f f ",
"q > u j u u ] ) ( ( u u u u j j g g g g g g p g g g g g g i g g k z z z k k a k k k k k k a a a k l f a l x h l f f f s ",
"3 q u j u u ( I ) ' u u u u l d g s s g g s g s s g g g g g s g k z z z k a z z a z k z k k a a l k f p l x l l s f s f ",
"q q v u u u ' ' ..Q u u u u j u i g g g x g g g g g g g g g g g g a a a z a a a z a z a k k k k k g i f h h g s l s s s ",
"q q u j u w ( ( ( ' u u u u d s s g g g n g g g g g b g g g g g x a a a a a a k a z k k g k a g h k f i k l s g g k g g ",
"3 5 q q e 8 Z Z ( R u u d u j l g s s g g s s s s g g a s p p g g k k a z k z k g a a a a a k x l l s g h g l l ~ L R N ",
"3 5 q q r q A Z H ( d u j u b b g d p g g s s i p g g a g a p g f k a k k z z k a a f a a a g g g h g s s l l b ~ ~ Z Z ",
"8 e 3 3 8 8 N m R E j j j u u d d g n l g g f f a g x g g g g x x k z z z k k k z a f f f g c x s s g h s s d h | I N N ",
"8 8 3 3 8 q N N R L j v d d d d d l b l x s g f p g x x x g g x x k k x z k k f k a g f f g x x s f f h d s h s / ~ N N ",
": 5 6 6 8 y R R [ O.R Z Q ~ P H N / F B B l l l x N B } } { { } S a a a a a f f a g a g x B } } P H ' ' R A Z H O.O.Z Z ",
"; 1 6 6 w y R R #.^ R ~ ^ ^ H ~ L H P B C x l l g B B } { { { { { a a f a f f s a h h k k M H L D H ' / R R D A [ [ T Z ",
"9 9 2 2 8 8 b b R R R N ^ ^ ~ ^ L L Y G C l z x x } { } } } { { } k k k k k k g k l k c c F ^ ^ H H ( ~ Q / b N R P m m ",
"9 9 2 2 8 8 b b R R R R ^ ^ ^ ..^ ' | B F k k x x } { } | } { } { z z k z l k l h k j c c F ^ ^ H H I ~ ^ ^ R R T R m v ",
"5 5 6 8 8 8 y y 0 8 8 0 8 0 1 5 7 O + # % . .     $ % - * $ $ * * % % % O o o o o O X O O O @ @ 5 8 1 5 4 4 4 2 4 4 4 w ",
"6 6 8 6 8 6 0 y 8 w 8 8 0 0 5 7 5 # + @ + . . . . * * * * & & * * % % % O X o . o X O O + X @ @ 7 7 5 1 8 8 8 4 q q q < ",
"0 0 8 8 6 6 8 8 1 1 2 1 0 0 5 9 0 o O O + O O o o * & & $ $ $ & % o % o o o o + O + + + O X X X q 8 1 1 4 8 4 3 < e q w ",
"0 d 6 6 2 2 8 8 1 1 1 1 0 8 7 9 9 X X O O O O o $ & * & $ o $ $ & o O o o o o + X + + X O O X X q 8 1 1 8 7 3 6 3 3 e e ",
"0 0 R R T R A ! V ! V ! V ! V T T A A ) ` E H Z Z ..X.F G O O % + 8 8 4 3 O.[ ~ ~ N Z N N q.>.>.4.4.q.q.4.q.q.0.q.e.@.4.",
"0 0 G R H T T T R T V A V V V V V V A A I A A Z Z ' ' D N = @ X + 4 8 3 3 [ [ ~ R H P N N >.>.7.4.4.q.q.q.q.4.4.q.q.4.4.",
"9 5 m G R ( ` ( R ! V V V V V A V V V A A Z V C Z H I D ~ @ @ # @ 3 3 < < F R H R ] ] ....7.>.>.:.q.q.q.:.q.:.:.4.4.@.@.",
"6 9 R m E E ! ) Q Q ! T V V V A A V V A A Z V Z Z I I Z N = @ = # 3 7 < 1 Z A Z Z ..] ..' q.>.>.q.:.q.q.:.:.:.:.4.4.@.@.",
"0 0 3.7.#.#.( I R H R A I ] E A I A A I I I I I H ~ L B B @ = = # q e r 8 Z H ^ ^ $.$.$.$.7.>.>.4.4.q.q.:.:.4.4.q.4.4.4.",
"0 0 w.5.@.@.I ( C I A A ) Y ) A A A A ( ( I I Y Y I ' F B @ @ = = 8 q q q A H ) ' #.$.$.$.7.>.>.:.:.q.q.@.4.4.4.q.q.4.4.",
"9 > e.e.#.#.I ] P C A A Y ) I V C V A H H C Z Z Z ' ' F N @ = O O 7 3 7 7 C D ' ' >.;.>.>.>.>.>.:.4.q.q.4.4.4.4.q.q.4.4.",
"> > w.w.<.#.] ) C C I H ) I P V V Z P A A Z P D Z Y / G F = = O O 3 ; q 3 Z C ^ ' 1.>.>.>.q.>.>.q.4.q.4.4.4.0.q.q.4.4.4.",
"9 9 > : r r h h u h e e : : > 9 9 l d s l l l l l L } L } = * O O u u u j P Z M M M n s p 9 : 7 > > 9 i 9 > > : i 9 : 9 ",
"> 9 : : t t h h h h t r > : > 9 9 h l h l h h x x / } } G = = = + u u h d Y H M M b n s u 9 : : > > i > > i > : e e > > ",
"t > : : t e h h h h t t e 9 e e r s d s s s s h g B B B B = =   O u h j h X.' H I l l s u 0 i 0 t > > t > > i > e r e e ",
"9 e : : e t h h h h r t 9 9 e e r s s s h s s h g B B B B % % O o u h j j ] | I H l l u p t 0 t > 9 9 e i > i > e e e e ",
"> > z z k k a a p p a a a a h p f k s l l k k s g x M x M     O O d u s s Y L N N 9 r > : : : : > > 9 9 > > 9 9 h p h k ",
"5 > l z k a a a a p p p h a h a a g g z z g g g g c c c x o   @ O s s u i I L C C e e > : : : : > > e 9 e > e e u u j h ",
"q 7 a a k a z k z z k k k k k z x s f f g a g p s f f g g o   - - l l s d Y Y H Y 7 9 > > e 9 9 9 > 9 e > > e 9 h p z j ",
"7 3 z k a z k a k k k k a z z p a k k g f z x z g s f p f e r e e l h s s Y ' Y L i i d u z a h h k h h h h k h h k j l ",
"3 7 z z a a k a k z k a z z k h a k x p s x n z l s i f f t t 9 9 h h s d ' ' Y | s u d h j h h h h s a h h h h h h l h ",
"q r k k a a z z z z a a a a k k x k k a p g g f g h h h k 9 9 : : h l s s | ' ' ' s s u u s u u l c l j h k h h j j j j ",
"q q k k k k z z z z a a a a k k k f f a p g k g g l l k g 9 8 : : l d u u ^ ' | ' d u s s d h u c j j j h h h h j z z j ",
"3 3 k z a a k a k f a a k k k a a k k g g g g g l ~ ^ N Z y t r 8 0 0 r 0 R D ^ ^ u u v d j j j u u h h h i h a a a z a ",
"3 3 k z a a a a f k k f k k k g a g g k g g g l l L G Z B r r 8 8 0 0 r 0 N T ^ ^ u d u d n l j u u h u u u a s a a z a ",
"7 8 z k a a a k g z g k l z c g f s s g g s s g d ^ L N E 7 7 3 2 0 8 0 0 N R R / j j j j u u s j j l j z l z z a z a z ",
"8 8 k z a a k k z z k k z z c z z p s g g s s g d ~ L N N 7 3 < 1 6 6 0 0 N N ~ / j j u u j u u j j l z j l l j a z z a ",
"; ; i u l x { } { B g f p f M } ..N ~ ....^ H N N [ [ V V 4 w < 2 6 8 8 8 R R O.O.R R ) ! A H H A C S S H L C S z a a a ",
"; ; i i x z } } S B f g s p c ..+.N G ../ ^ ^ m N [ [ V V 4 < w 4 6 8 0 0 R R O.O.R R E R H H Z C C S L Y L c B z z a a ",
"8 9 h h c c | | S S z l l k S ..| ~ N +.^ ^ ..R N R ~ m m w w w w 2 2 8 8 b b R R R R R ~ Z I I C C | Y | | C C z z z z ",
"9 8 a h c c | | S { l k k k B | | ~ G } / ~ ^ N m R R m m w w w w 1 2 8 8 m b R R R R R ( A I I C C I | | A { { z z a a ",
"5 5 O O . . X . + O O O + @ % X   9 0 5 5 0 0 6 4 4 6 4 4 , , < < 8 8 6 6 y y 8 y 8 6 8 q < 3 1 X X o o + & & & $ $ & $ ",
"5 > O O . . X . O O O O = O # X @ 0 9 5 6 8 6 6 4 4 4 4 4 , , < < 8 8 6 8 y y 0 y 8 8 8 8 1 3 4 X . + + + + & + $ $ $ $ "
};
