/* XPM */
static char *_7663c4b4c3a4a49ac1e2ba31409ef07PkkCUkOJEg53VQr9[] = {
/* columns rows colors chars-per-pixel */
"60 60 256 2 ",
"   c #252015",
".  c #332D16",
"X  c #531102",
"o  c #681807",
"O  c #563111",
"+  c #672705",
"@  c #613C0B",
"#  c #73300C",
"$  c #521B2A",
"%  c #51312A",
"&  c #4C3C3A",
"*  c #553B39",
"=  c #663332",
"-  c #324723",
";  c #524311",
":  c #75480E",
">  c #66431B",
",  c #4F442F",
"<  c #54413D",
"1  c #5D4739",
"2  c #684D2A",
"3  c #784828",
"4  c #7C542A",
"5  c #76483A",
"6  c #655439",
"7  c #795738",
"8  c #7D6737",
"9  c #540D40",
"0  c #6A1A4A",
"q  c #593A43",
"w  c #5F3F56",
"e  c #6C344B",
"r  c #484644",
"t  c #554242",
"y  c #5C4847",
"u  c #674844",
"i  c #784A43",
"p  c #754D4B",
"a  c #7A4F4E",
"s  c #6B5544",
"d  c #6C534A",
"f  c #6A5748",
"g  c #765749",
"h  c #7B514F",
"j  c #764D56",
"k  c #6B5552",
"l  c #6B5854",
"z  c #755653",
"x  c #7A5350",
"c  c #735C54",
"v  c #756549",
"b  c #77506E",
"n  c #737065",
"m  c #893807",
"M  c #953806",
"N  c #903915",
"B  c #913E2F",
"V  c #894709",
"C  c #95490F",
"Z  c #A14F16",
"A  c #854A28",
"S  c #9A4529",
"D  c #8E5031",
"F  c #865A34",
"G  c #A84F34",
"H  c #846429",
"J  c #886836",
"K  c #8B643D",
"L  c #8A6B3B",
"P  c #936639",
"I  c #94693C",
"U  c #8B7338",
"Y  c #99783C",
"T  c #863949",
"R  c #89256E",
"E  c #835949",
"W  c #8B5C53",
"Q  c #905550",
"!  c #B35D5F",
"~  c #846344",
"^  c #8C6643",
"/  c #836A45",
"(  c #8C6846",
")  c #85644C",
"_  c #8C664A",
"`  c #846B4B",
"'  c #8D6A4B",
"]  c #946843",
"[  c #926A44",
"{  c #906C4C",
"}  c #88714C",
"|  c #977847",
" . c #9B754C",
".. c #9A7D4D",
"X. c #8D6354",
"o. c #886855",
"O. c #8C665B",
"+. c #936256",
"@. c #966A54",
"#. c #936559",
"$. c #93695C",
"%. c #877454",
"&. c #8C7255",
"*. c #9D7A53",
"=. c #9E745A",
"-. c #967859",
";. c #A27947",
":. c #B76E52",
">. c #A57757",
",. c #A27C53",
"<. c #A3755A",
"1. c #A37B5C",
"2. c #815F62",
"3. c #AE577C",
"4. c #8C726B",
"5. c #957864",
"6. c #A47B62",
"7. c #B5727E",
"8. c #D7784D",
"9. c #E27D59",
"0. c #C15577",
"q. c #CB726F",
"w. c #D97878",
"e. c #E37273",
"r. c #9F803E",
"t. c #D7AE35",
"y. c #9B814C",
"u. c #9A8253",
"i. c #A18246",
"p. c #A78958",
"a. c #AB8E5C",
"s. c #B08658",
"d. c #AD9157",
"f. c #AD945D",
"g. c #B09056",
"h. c #B2935D",
"j. c #9B8367",
"k. c #968779",
"l. c #A48967",
"z. c #AD9268",
"x. c #B29361",
"c. c #B2916C",
"v. c #BC9C6E",
"b. c #AA8F71",
"n. c #B49472",
"m. c #D49250",
"M. c #E89E59",
"N. c #ECB553",
"B. c #D38B73",
"V. c #DA987B",
"C. c #E89969",
"Z. c #F1946C",
"A. c #E59A77",
"S. c #DAA468",
"D. c #D8A978",
"F. c #ECAF67",
"G. c #EAA37A",
"H. c #F4A277",
"J. c #F2DE57",
"K. c #FEDD5A",
"L. c #FDE35B",
"P. c #FDDB66",
"I. c #FFDD6C",
"U. c #F4C370",
"Y. c #FEDB75",
"T. c #FDD77B",
"R. c #FEDC7D",
"E. c #FCE569",
"W. c #FEE26D",
"Q. c #EAE37D",
"!. c #FBE375",
"~. c #FEE17C",
"^. c #8D5693",
"/. c #AF5D9A",
"(. c #976F89",
"). c #B06F90",
"_. c #B254B2",
"`. c #B75ABA",
"'. c #9774AC",
"]. c #A866A8",
"[. c #B16BAC",
"{. c #B976A9",
"}. c #A765B7",
"|. c #A776B7",
" X c #B577B5",
".X c #C5559C",
"XX c #CD6D85",
"oX c #D87889",
"OX c #DE6D9A",
"+X c #D87797",
"@X c #E27382",
"#X c #E36D9B",
"$X c #E27497",
"%X c #C658B9",
"&X c #D056B0",
"*X c #D370AE",
"=X c #D76AB2",
"-X c #E669A9",
";X c #E773AB",
":X c #E368BA",
">X c #BA5AC6",
",X c #B354D3",
"<X c #BA65C4",
"1X c #B17AC3",
"2X c #B95EE0",
"3X c #BD64E3",
"4X c #C54BC3",
"5X c #C658C6",
"6X c #CF55D1",
"7X c #C96CC9",
"8X c #E475C6",
"9X c #988B8C",
"0X c #A88785",
"qX c #A98A94",
"wX c #A7939B",
"eX c #AF89AC",
"rX c #D18F8C",
"tX c #E89984",
"yX c #F49788",
"uX c #ED9294",
"iX c #F69598",
"pX c #CCA78B",
"aX c #D7A998",
"sX c #E6A385",
"dX c #EDAC90",
"fX c #D68DAE",
"gX c #CA96AC",
"hX c #EC8DAF",
"jX c #E3A9A9",
"kX c #FFDB83",
"lX c #FFD88B",
"zX c #E8DA94",
"xX c #FFDD94",
"cX c #FED79A",
"vX c #FEE182",
"bX c #FCE589",
"nX c #F1E393",
"mX c #FFCCAD",
"MX c #FCD8A5",
"NX c #FED4BA",
"BX c #EFE4A8",
"VX c #F5E2A4",
"CX c #FEFABA",
"ZX c #E585CF",
"AX c #E799CE",
"SX c #FFCFCF",
"DX c #FDFAC5",
"FX c #FCFDCC",
"GX c #FBFAD5",
"HX c #F9F0DA",
"JX c #FEFCDC",
"KX c #FECBE6",
"LX c #FEFCE3",
"PX c #FEF7E8",
"IX c #FFEAF3",
"UX c #FFF6F5",
/* pixels */
"Y Y ;.Y x.x.x.;.Y ;.Y h.h.x.x.x.x.x.x.x.x.x.x.x.x.x.x.x.x.x.c.c.n.n.n.n.l.l.p.-.5.@ @ > > -.&.j.j.b.b.b.n.n.b.n.c.x.c.c.",
"Y Y Y ;.x.x.x.Y | Y Y h.x.x.x.x.x.x.x.x.x.x.x.x.x.x.a.x.x.x.c.x.c.c.n.n.z.1.l.-.u.@ @ > > -.-.j.j.b.b.n.n.n.z.n.z.z.c.c.",
";.r.i.p.x.x.x.i.i.;.;.g.a.x.x.x.h.x.x.x.x.x.x.x.x.x.x.x.x.h.x.c.b.c.c.c.l.p.j.-.u.@ @ @ ; *.j.j.j.l.j.b.c.b.b.n.n.n.B.n.",
"| ;.i.i.h.h.x.i.;.i.i.a.g.x.x.h.x.x.x.x.x.x.h.a.s.x.x.x.x.s.c.c.c.c.c.c.l.1.u.5.u.@ @ @ ; -.-.j.j.l.b.b.b.b.c.c.n.c.c.n.",
"W X.O.X.$.$.$.X.X.) X.X.X.#.#.#.#.#.X.X.O.$.$.$.$.$.#.#.+.$.^ ^ ] L ] ( X.-.-.5.j.> > > 2 4.5.5.5.&.&.X.( ' ^ ^ K ^ P ^ ",
") _ X.X.$.$.$.X.+.) W X.X.$.$.#.#.+.$.X.X.$.#.$.$.$.#.#.X.+.^ ^ ( ( ' ] { -.-.5.j.% > > > 5.5.5.5.&.&._ ( ( ^ ^ ^ L ^ K ",
"X.X.$.$.X.h X.$.#.+.O.x W E X.) W ) X.W _ X.W o.+.A +. X X*X*X{.*X1X X XeXqX).eX{., O > > 4.5.-.5.) &.( E ~ ^ ^ [ [ ] ] ",
"{ { { { ^ ( ( { &.{ &.( ( ' ' &.{ { { ( { { ' ' +.] +.|.]./.]./.].[.].].(.).(./.).f , 4 6 o.f f c o.} ` K K ( { [ [ [ [ ",
"{ ' { { ( ^ ^ { &.{ { ^ ( ( ( { { ' ' o.) ' } } ] 4 k.}.>X3X3X,X<X5X`.`.>X>X>X>X}.1Xb Q Q $.5.-.v %.&.&.v 7 ] { ] ( ( ] ",
"' ' ^ ( ~ ^ L K K ~ ^ ( ^ ( ( ( ( ( ) ) ) ~ L L K 3 7.}.,X2X3X2X`.5X<X`.>X>X>X>X_.eXR +.W =.-.-.6 v &.) 7 7 K ^ J J F F ",
"( ( ^ ( ~ K ( F K ( ~ ^ ( ( ^ / ( ( ~ g ) 7 6 8 ` k.4.|.<X2X2X,X`.>X>X`.>X>X>X`.}.1X[.wXeX0Xb.5.6 ` o.) ~ ^ ~ ( K F H F ",
"u.u.| | u.*...U L U U y.y.u.u.| ..../ | | F (.(.'.}.1XMXvXL.K.K.K.K.lXxXlXlXF.lXsX[._.%X_.`.`.[.(.` -.-...u.1.6.p.p.1.s.",
"y.y.| | u.u...U U U U u.......| | } | } 7 0XeXeX'.[.^.MXY.E.L.L.L.K.lXxXlXlXF.U.dX/.`.`.%X%X5X`.wXk.f x v -.p.*.*.l.1.1.",
"....U | y.u...H H J J ......y.y...u.y.8 {.7X/./././.).xXkXW.Y.I.R.R.T.R.T.!.U.N.J.q.0.q.0.0.)./.|.eXb b b ..*. . . .*.;.",
"....| | u.u...H H J J ......| | u.u.u.n }.[./.{.KXKXKXbXY.~.W.I.R.vX~.vXkXvXR.R.kXSXSXKXSXSXAXAX].'.'.'.(.u.,.,.*.*. .,.",
"a a a a h a a a a a i p h h h p k l w eX5X5X! ! cXW.P.I.I.W.W.W.R.bXL.L.vXvXlXxXcXlXkXY.I.N.P.cX<X`.}.}.|.w u i g i i 5 ",
"a a a h a a a a h h p p a h p p p j b '.5X>X! ! MX!.P.W.I.W.W.W.R.bXL.L.!.~.bXxXxXxXlXY.Y.N.N.dX<X<X}.}.1Xe u p i E 5 5 ",
"a x h h a p a x x p p a a h p 1 u b eXeX,X5Xq.q.cXP.P.!.P.P.P.E.Y.kXJ.L.R.R.xXlXlXlXlXR.R.J.U.dX_.`.<X`.1Xe 5 i i i E E ",
"a x z h a u z a p p s h E q w ^.^.'.}.}.!.W.Y.Y.bXR.R.xXlXW.I.W.kXbXE.E.kXkXvX!.!.W.I.kXbXM.S.uX`.%X%X{.).= i 5 i E h E ",
"f.f.f.f.f.a.x.f.a.u.p.a.u.7 9XeXeX'.}.}.!.W.!.~.Y.P.R.xXxXI.I.W.kXkXK.P.R.R.T.J.E.P.P.kX~.m.S.dX7X5X/./.).L y.i.a.p.f.z.",
"f.f.f.f.f.f.f.f.f.f.f.p.k.eX{.)./.).7.:.W.I.bXbXkXW.~.kXT.R.R.R.R.T.VXMXNXMXBXzXBXMXmXNXNXiXtXuX0.XX).q.b.0Xp.i.a.a.z.f.",
"f.f.x.h.x.z.f.f.f.x.f.j.9X'.].{.[.KXKXSXQ.P.~.R.~.~.~.kXlX~.R.vXvXbXCXCXDXDXGXDXCXm.8.9.8.8.w.@XhXhXrXgX1 , ' i.a.a.x.x.",
"' ' ( ' ( _ _ ' ( X.v 9XeX}.].3.3.NXI.P.Y.bXkXkXkXY.I.K.L.R.R.vX!.Q.JXLXFXFXFXJXLX+X=X:X:X;X-X#XZ.A.pXpX; . r c O.O.O.O.",
"X.) _ ' ) ' _ ( ) c l 9X|.}.}.3.3.NXY.I.!.vXkXT.kXY.P.K.L.R.R.vXQ.nXJXJXFXFXFXJXPX+XOX-X-X:X-X#XC.G.pXpX; - - o.4.O.O.O.",
"` _ _ _ _ _ _ ) E g ).{.'.}.}.).7.SX!.E.P.~.R.R.lX!.Y.L.L.kXvXvXQ.Q.GXLXGXFXFXGXLX+X-X-X-X;X-X#XH.A.pXV.O - - o.4.4.O.O.",
"_ _ _ _ _ ' _ 2.gXgX/.}._.xXlXlXkXQ.L.L.I.!.nXQ.FXPXLXJXLXLXLXGXDXFXGXPXUXHXoX-X-X-X#XOX#XoXoXw.uXrXaXjXo % * o.$.$.O.W ",
"_ _ _ { _ _ ) b eXeX].<X`.cXlXlXlXkXJ.J.!.vXnXnXDXPXLXLXLXLXLXJXFXFXJXPXHXIX).=X;X-X-X+X-X$XoXw.dXaXaXaX# = < L L L J J ",
"' ( ] _ { 3 5 0X6.6.s.;.;.mXMXVXVXBXBXzXzXzXnXBXDXPXPXUXLXUXUXPXLXJXUXUXIXIX=X*X*X=X=X-X-X-X-X-XhXfXfXjX= % < J L ( J J ",
"] ( _ _ ( 5.5 7 F A NXSXNXHXFXDXDXDXDXDXCXCXCXDXGXUXPXLXPXPXPXUXHXJXn [..X/.&X_.=X&X&XOX&X-X-X#XuXfXrXgXo $ & J L ( J J ",
"_ { _ _ ] ).F V V V nXI.E.PXPXFXDXFXJXJXHXGXGXFXGXLXGXFXDXGXGXLXPXUX].>X6X6X6X_.}.`.&X&X4X:X:X-X*XfXgXgXe w & J L L J J ",
"_ W _ _ _ 0XA V V V xXE.W.PXPXFXFXFXJXJXGXGXGXGXGXLXJXFXFXGXJXLXPXUX_.,X6X6X6X>X`.%X%X&X&X:X8X:XfXfXfXgXe * & ( ] ] { ] ",
"W ^ _ _ X.qXH V V V xXK.!.HXPXFXGXFXLXLXJXGXGXGXGXLXJXFXFXGXGXHXLXIX].3X6X6X6X`.`.%X%X&X&X8X:X:XhX*XqX).= * & ] ( _ ] { ",
"] _ @.X.X.wXA C C M lXW.P.aXsXS.S.S.V.sXcXMXVXVXFXGXGXFXFXPXHXXXrX*X%X_.`.%X<X>X,X5X4X6X:X8X8X;X0 R b b n 1 ) _ ^ K _ ' ",
"_ _ @.{ X.9X5 C C C cXW.P.sXpXS.S.A.tXtXcXcXBXzXHXGXGXFXFXPXPXoXXX+X&X5X5X5X>X>X<X5X%X5X6X8XZXZX0 0 % $ = g ~ ^ ^ ^ { ' ",
";.;. .;.;.qXA C Z M mXcXcXC.G.A.H.yXyXiXmXmXMXmXGXJXGXDXDXHXPXoX#X-X5X5X`.`.`.4X5X6X5X`.%XfXgXeX$   . . K >.=.>.>.>.>.>.",
";. .;.;.;.9XA G M M H.M.M.m.H.yXyXe.e.9.8.8.m.m.D.v.pXzXnXSXNXXX#X-X4X%X<X>X_.4X4XZX8XZX8XR R 0 E 1 x F ,.>.=.>. .>.1.1.",
";.>.>.>.;.qXA Z M M H.m.M.M.H.yXyXe.e.e.8.8.8.8.D.pXpXzXnXSXNXq.#X-X4X4X5X<X`.>X6XZX7XZXZXR R 0 c 1 F E >.>.>.>.>.>.1.1.",
"d u k k k 0X: m M m dXdXdXC.M.iXuX#X#X;XOX+XXX@XuXD.M.R.vXcXcXB.+X=X6X6X7X6X6X=X&X7XgXAXgX0 w   , y u d c k f c u u u s ",
"d d k k k 0XF C Z Z V.sXA.C.M.iXiXOX#X-XOX+XXXXXuXyXS.R.!.MXMXB.oX=X6X6X5X5X5X.X=XZX7XgXAX9 q   u f d f z d f c u d d s ",
"k k k k k q u & v v D G G A.Z.iXiX$X#XOX$XrX@X@XiXdXH.xXlXNXNXrXhXhX8XZX;XfXhXfXfXo w q q 9Xn y k d f d c c c c z z c c ",
"z k l l l l l r , - V m B G.H.uXuXOXOXOXXX+Xe.@XiXyXZ.lXxXNXNXB.hX;X8X8X;XfXjXhXjXT % % % n k k f f d d c c c c f c c x ",
"x.f.x.x.z.z.b.b.6 1 g : Z uXyXZ.Z.Z.e.e.w.@Xe.e.yXA.G.T.R.MXMXtX$XhXhX;XV.tXV.V.v.@ -     y.d.p.d.r.y.r.g.g.g.h.g.g.g.g.",
"f.x.h.x.x.a.c.b.6 1 1 D M B.9.9.9.yXiXiXiXiXuXyXyXtXM.t.t.S.M.dXiXhXAXhXtXtXm o : l.u.r.U g.d.p.g.r.i.r.g.g.g.h.g.g.g.g.",
"x.h.a.a.z.p.n.n.y 6 2 D M w.q.9.9.Z.iXiXiXhXuXuXyXyXS.t.t.S.S.dXiXhXhXhXtXsXm # : l.u.8 U h.h.g.g.r.r.Y g.i.g.h.h.h.h.h.",
"f.h.f.f.a.u.c.b.v f 5 T B oXq.w.w.yXyXyXA.A.G.G.C.H.M.Z.Z.Z.M.H.Z.A.rXpXpXaX> - & 9XU Y r.x.h.d.d.Y r.;.s.g.h.h.h.h.h.h.",
"P P P P ] ^ ] _ &.4.W Q Q q.q.B.B.yXyXyXdXH.C.C.H.Z.Z.Z.Z.H.H.Z.H.sXdXpXV.rX+ r r 4.+.+.X.E _ +.+.+.@.+.+.@.+.+.@.@.@.@.",
"P P I P ] F ] _ E _ i * Q Q S B B S N m M V C C sXsXdXH.A.sXV.sXV.pX+ # F 5 4.n d X.$.X.+.Q W X.+.+.+.+.#.@.+.+.#.+.! #.",
"P P P P ] ^ F _ _ @.$.c D Q B S S S S Z G m m m sXG.A.C.G.A.V.sXdXaX# X O + +.E +.W +.W W +.#.+.#.#.+.+.+.+.+.+.+.+.+.+.",
"P P L P P J F ~ ' &.@.5.c c n 7 6 g 6 2 v v $.$.pXaXaXaXaXpXrXaXpXgX% 1 % % g W W W +.W W #.#.#.#.+.+.+.@.+.+.+.+.+.+.+.",
"J J H U U 8 8 8 8 / } %.%.%.u.2 2 4 > 8 ( } -.&.+ + o # o 3 A o > O 0X9Xv ~ ` &.%.%.%.} %.` } / ` / / / / / ` } } } } } ",
"U U H U J 8 8 8 8 / } &.%.n u.2 2 4 > 6 ` %.&.&.o + o # # A A X 3 O 0Xk.~ ) } %.%.} } } } ( } ` ` ~ ^ / } / } ` } } } } ",
"H U U H J J 8 L L / / } v -.%.4 2 8 2 8 %.%.6 2   * 1 % % % % $ < & k.k./ ` v ` ` ` v / v ` v ` / v v / / ( } / ^ / ~ K ",
"<.:.<.>.1.=.1.1.=.1.=.-.=.<.>.4 4 4 F =.<.6.g g   % * X 1 = * * % q 4.l.=.*.u.=. .^ L L K *. .,.,.,.*. . .,. . .Y ] P H ",
"<.<.>.<.1.>.1.<.>.1.1.6.6.l.1.3 3 F F =.=.6.=.<.6.6.6.6.6.6.,.u.j.p.j.u.*.1.*. . .[ [ ] ] p.=.,.,.,.,.,.,.,.;. .I ] P P ",
"<.<.<.<.>.<.>.>.>.=.>.=.=.=.=.4 4 F F @.=.=.<.=.6.6.<.@.<.=.*.-.*.*.*.*.*.*.*. .| ] I P K | |  . .*.=.,.,.*. . .I I P H ",
"<.<.<.<.=.<.>.=.>.=.=.*.=.=.=.F A F F =.@.=.=.1.<.<.@.$.=.=.*.-.*.-.*.=.-.*.*. . .] ( K P  . .|  .*.;.,. .;. . .I P P J ",
"j z z z g d z g s g f f s 6 s 6 6 s 6 l f c c c c z u t u w * q & t t q t t t t t < < * * t t y y k k l l c l c l l l k ",
"x z x x z z z s g f s v v f s 6 6 6 6 f c k c c z l q u u u * * < & r < t t t y t < < < * t t y y d k l l l l l l l l y ",
"z z z g s d p s s g g s s 6 s s s s f f f f c f k d * = q 1 t t < t < t < r t t t < < < < < < y y y u l k k l l l l l l ",
"z z d p i p d d s f f s s s s f f f f f f s z f k z * 1 q q t t t r < q < q t t t t < < < < < u y l y l k k k l k l l l "
};
