/* XPM */
static char *_2f186511b4b43ccb51753e77641184bB4NDGWPGJ6Ul5NFU[] = {
/* columns rows colors chars-per-pixel */
"60 60 227 2 ",
"   c #2E302A",
".  c #3F332B",
"X  c #2C2D30",
"o  c #5B321B",
"O  c #643818",
"+  c #72371B",
"@  c #45332A",
"#  c #4A352A",
"$  c #52342C",
"%  c #5A372B",
"&  c #5B3C2B",
"*  c #473C3A",
"=  c #533533",
"-  c #543D32",
";  c #523E3A",
":  c #5A3D3A",
">  c #653C28",
",  c #6D3E2A",
"<  c #71392F",
"1  c #663D36",
"2  c #5C401F",
"3  c #66431C",
"4  c #5D4225",
"5  c #55412B",
"6  c #484837",
"7  c #4C4039",
"8  c #544334",
"9  c #5B4136",
"0  c #54423D",
"q  c #5D443C",
"w  c #5B4B3B",
"e  c #5A503F",
"r  c #614327",
"t  c #66472A",
"y  c #6C432B",
"u  c #70432F",
"i  c #624633",
"p  c #6A4736",
"a  c #65453A",
"s  c #644A3E",
"d  c #754735",
"f  c #754438",
"g  c #4C3E42",
"h  c #4B4947",
"j  c #5C4542",
"k  c #5B4C45",
"l  c #54454A",
"z  c #574A49",
"x  c #51524E",
"c  c #4D4F51",
"v  c #4F5052",
"b  c #525355",
"n  c #624443",
"m  c #654A44",
"M  c #68534B",
"N  c #785348",
"B  c #655A56",
"V  c #6C5B58",
"C  c #7A5D52",
"Z  c #715E5C",
"A  c #5C635E",
"S  c #76634E",
"D  c #7F7842",
"F  c #66635D",
"G  c #6D665C",
"H  c #7B6453",
"J  c #786958",
"K  c #7A765A",
"L  c #695A60",
"P  c #486C6F",
"I  c #5C6567",
"U  c #4B7072",
"Y  c #507376",
"T  c #6C6464",
"R  c #656965",
"E  c #6A646A",
"W  c #666868",
"Q  c #756362",
"!  c #7B6462",
"~  c #756B63",
"^  c #7D6B63",
"/  c #71626B",
"(  c #67706B",
")  c #7D7464",
"_  c #78756A",
"`  c #7C7D6B",
"'  c #636D74",
"]  c #756772",
"[  c #7D7D71",
"{  c #814B30",
"}  c #96612E",
"|  c #9A6736",
" . c #A7773C",
".. c #B67A3B",
"X. c #9E5A45",
"o. c #865D51",
"O. c #A25E4A",
"+. c #876649",
"@. c #93784F",
"#. c #876457",
"$. c #85645A",
"%. c #8C6A5E",
"&. c #94665B",
"*. c #88765C",
"=. c #A86C4F",
"-. c #AA7B49",
";. c #B37D59",
":. c #826A62",
">. c #847D63",
",. c #887668",
"<. c #837C6B",
"1. c #957A68",
"2. c #847B73",
"3. c #887D76",
"4. c #A67D65",
"5. c #B77967",
"6. c #AE7671",
"7. c #B27B77",
"8. c #74805F",
"9. c #7A8565",
"0. c #7E8174",
"q. c #B6813F",
"w. c #8B8451",
"e. c #AF8046",
"r. c #A9834C",
"t. c #B88449",
"y. c #A8875A",
"u. c #B38A57",
"i. c #878066",
"p. c #8F8062",
"a. c #938466",
"s. c #818274",
"d. c #8D8677",
"f. c #84847C",
"g. c #8B847A",
"h. c #988779",
"j. c #A98068",
"k. c #CC926A",
"l. c #C49679",
"z. c #D39A73",
"x. c #D9A07A",
"c. c #8B8985",
"v. c #8E8E8A",
"b. c #928B85",
"n. c #9A8E84",
"m. c #948E8A",
"M. c #998E8B",
"N. c #8F908E",
"B. c #949185",
"V. c #9C9186",
"C. c #94918D",
"Z. c #9C928C",
"A. c #939491",
"S. c #9B9491",
"D. c #979A98",
"F. c #A99886",
"G. c #AE9D8F",
"H. c #B09C84",
"J. c #A09390",
"K. c #A59D97",
"L. c #AC9A94",
"P. c #AC9E9A",
"I. c #B49F92",
"U. c #B89F92",
"Y. c #A7A288",
"T. c #ACA58A",
"R. c #ADAA8C",
"E. c #B2A587",
"W. c #B9A58E",
"Q. c #B3A88A",
"!. c #A6A493",
"~. c #ABA695",
"^. c #ADAA92",
"/. c #A6A49D",
"(. c #ABA49E",
"). c #A5AA9B",
"_. c #ACA99A",
"`. c #B3A393",
"'. c #B4AA93",
"]. c #B4A49B",
"[. c #B9A69F",
"{. c #B3AA9C",
"}. c #BCA898",
"|. c #BDB098",
" X c #A7A6A5",
".X c #ACAAA2",
"XX c #B4A9A4",
"oX c #B8A8A0",
"OX c #A9B2A7",
"+X c #B7B2A6",
"@X c #ADB1B1",
"#X c #B8BBB6",
"$X c #CB9D82",
"%X c #D0A388",
"&X c #C1AD99",
"*X c #C6B9AC",
"=X c #D0B3AA",
"-X c #C6B5B7",
";X c #C6BCB3",
":X c #CBBCB4",
">X c #C6BDB9",
",X c #DCBEB6",
"<X c #BCC1B8",
"1X c #CDC4B5",
"2X c #CCC3BC",
"3X c #C6C8BB",
"4X c #D1C6B5",
"5X c #D2C3BB",
"6X c #E5C7BF",
"7X c #C4BEC4",
"8X c #C4C4C4",
"9X c #C6CDC4",
"0X c #D6C6C5",
"qX c #FCF4EE",
"wX c #FFFBED",
"eX c #EDF9FF",
"rX c #F5F4F2",
"tX c #FCF6F3",
"yX c #FEFAF6",
"uX c #FEFCF5",
"iX c #FFFDF5",
"pX c #FCF5FC",
"aX c #F4FCFD",
"sX c #FEFDF9",
"dX c #FBFFFD",
"fX c #FEFDFD",
"gX c #FEFEFD",
/* pixels */
"I W ' W 7X7X7XdXfXpXfXgXfXfXgXgXyXgXfXyXgXfXfXgXgXfXgXgXgXfXuXuXgXgXgXgXgXfXdXdXgXdXaXsXdXdXdXgXgXiXrXgX2X>X>X>X0 0 0 0 ",
"I I W ' 7X7X7XgXgXpXpXgXfXfXgXsXgXgXgXsXgXdXyXgXfXfXyXfXgXyXuXtXyXfXyXgXyXfXdXsXsXdXdXdXdXdXdXgXgXrXyXfX>X2X>X>Xk 0 z 0 ",
"I I E ' 7X#X7XgXgXgXsXyXyXfXfXsXsXgXiXgXdXsXyXsXyXgXgXfXgXgXfXyXfXfXpXpXaXsXsXsXsXaXdXdXdXdXdXrXrXgXgXfX8X2X>X>XB M @ @ ",
"E I W I #X7X7XgXgXgXgXpXyXfXfXyXsXyXfXgXsXsXsXgXsXiXgXfXfXgXiXsXgXgXrXpXrXsXaXdXdXdXdXdXdXdXdXrXrXdXgXgX2X>X#X>XB B @ # ",
"R R R R gXgXgXS.J.c.c.g.3.) _ s.0.0.0.0.0.0.[ [ 2.,.3.2.3.3.S.Z.b.m.f.f.3.N.N.D.A.A.A.A.A.c.c.D.D.c.c.m.sXiXyXiXk 0 k k ",
"R R R R gXgXgXS.J.3.3.3.3._ _ 0.0.s.0.0.0.0.[ [ _ 2.3.3.3.3.C.S.m.M.f.f.f.N.N.A.A.N.N.A.A.c.c.D.D.c.c.m.iXgXtXyXq j k k ",
"R F R R yXyXgXn.n.M.m.2.3.2.2.` 0.` ` ` [ [ [ [ 3.2.3.2.2.2.m.m.c.c.3.3.3.N.A.v.A.N.N.N.N.N.v.D.S.C.C.C.iXiXtXqX0 8 ; 0 ",
"G F R ~ yXyXyX3.3.d.g.,.) <.<.<.>.` ` ` ` s.d.B.n.m.n.n.n.n.M.M.M.M.m.c.b.A.A.S.S.C.N.C.A.N.A.0.f.Z.Z.Z.;X:X0X0Xq q 0 9 ",
"G G G R iXyXiX2.2.d.d.:.,.>.) <.>.` ` ` 9.s.d.B.V.V.V.V.n.n.n.M.M.M.m.c.b.M.M.S.S.C.N.C.C.C.C.f.3.S.S.S.-X-X0X0Xq q : 0 ",
"B A F G iXyXiX,.,.:.) d.3.<.<.<.<.` ` ` 0.s.c.d.B.V.J.V.V.V.V.Z.J.J.M.M.M.A.A.M.m.v.v.m.v.C.A.S.S.m.m.b.*X+X:X:X# # q q ",
"B A F F yXyXsX,.,.,.:.3.3.<.s.i.<.` 9.[ ` s.d.B.V.B.J.V.V.V.J.M.J.S.M.M.m.M.M.v.m.v.v.v.v.A.S.S.S.m.v.b.-X*X:X-X# @ q q ",
"J J G G XXoX].P.{.[.[.h.F.h.J.h.n.B.h.B.B.B.B.B.S.J.L.L.P.P.P.P.P.P.J.J.M.M.M.M.m.m.m.C.C.m.b.M.m.].(.oXoXoXoXoXq s q q ",
"~ ~ J G {.].].].].].[.n.n.n.J.B.n.h.B.B.B.c.B.B.J.J.L.L.P.].P.P.P.P.J.J.M.M.M.M.m.m.m.S.C.m.b.C.M.(.].XXoXoXW.oXa q a q ",
"G G B F XX].P.U.].L.L.F.F.h.h.B.B.B.B.B.B.B.B.B.Z.M.P.P.oXoXXXXX].P.J.J.b.M.M.M.M.m.m.A.S.B.C.n.M.(.(.P.oX].L.L.s s 9 : ",
"G G B B {.].].].U.L.L.J.L.h.n.B.B.B.B.B.B.v.b.b.Z.Z.].P.oX-XXXXXP.XXJ.Z.b.M.M.M.m.m.m.C.C.C.B.Z.Z.(.P.~.oXXXL.L.s s 9 9 ",
"G V J Q j j : j n j a = = m m iXiXgXgXiXsXsX* * l l g l g g n g 0 0 j z = pXgXtXtXyXgXgXdXk k 7 ; 8 0 j $ % a a a a & & ",
"V V Q ! n n 1 n n j 1 : - m m uXyXsXiXiXyXgX* * z l g l g g n g 0 0 j z = sXsXtXtXyXiXyXgXk z ; ; 0 0 k % % a a a s & 9 ",
"^ ^ V V n g n n q = = m M @ @ iXuXiXgXgXfXyXx z * h g g M l m m - ; 7 7 k pXyXfXgXgXgXgXiX. . M M # # q m s a a & > s d ",
"] ^ V V j j n g g = = M M @ @ yXyXgXiXgXgXfXz x g g g g n z z k ; ; 0 ; k yXyXfXyXsXiXiXiX. . M B @ # q s s n n & & f m ",
"! Q Z Z :.! $.= = N M tXtXuXgXiXiXyXyXqXrXgXtXrXgXsXgXfXpXpXtXtXyXgXgXyXrXgXgXqXqXuXyXgXsXiXiXtXwXM M # H H $.$.% > 1 < ",
"Q ! Z Z ! ! :.$ = M N pXtXyXyXgXiXyXyXrXrXgXrXrXfXfXgXgXpXpXtXtXgXiXgXsXqXgXiXqXqXyXuXgXiXiXyXtXiXM M $ o.C :.o.% % , p ",
"Q G Z Z ,.,.3.: : : 1 pXsXtXtXyXyXgXgXgXsXpXgXgXpXpXfXpXpXfXfXyXiXiXyXuXiXtXtXsXiXgXgXyXiXiXuXyXyX8 8 9 ,.1.%.1.> > > > ",
":.! H J H V H i a & : yXwXuXuXXX{./.(.).)./.gXfXgXgXsXgXtXpXtXqXiXiXyXgXgX/./.(./././..X.XuXuXuXiX9 8 i C C o.o.u 1 f f ",
"^ ! ! J C Z C 9 9 9 : uXuXuXuX{.XX/.(.).). XgXgXfXfXgXgXpXtXyXyXgXiXiXiXiX/. X/. X(./.XXXXuXuXuXiX: - i o.C C o.u p f f ",
"M M ^ K :.$.:.s s $ $ wXqXuXiX(.(._._..XOX/.sXsXgXgXfXfXfXfXfXfXsXsXsXsXsX)./..XXX/./.(./.iXiXqXtX$ # i %.%.%.%.d f o o ",
"M M :.K :.:.:.a s 5 $ wXqXuXiX_.(./..X.X X/.sXsXgXgXgXgXfXfXiXyXdXuXsXuXiX/..X X.X(./.(.(.sXiXuXwX# $ s %.$.%.%.d d o o ",
"S S *.$.S S $.i i i i wXwXwXuX~.~._.!.).).).uXuXyXrXsXgXtXsXiXsXuXuXuXyXsX)./.)..X/./..X(.iXiXiXiXq q a #.#.o.o.d d , , ",
"S S J K S S $.i i i p wXwXwXwX~.~.~.).).).).rXuXyXyXgXyXsXsXuXyXrXuXuXsXuX).). X_././._.(.iXyXuXiXq s s #.&.o.o.d d u < ",
"S S H H J H *.4 4 i i wXwXwXwX_._.).!.!.).).yXuXgXiXgXgXsXsXsXiXiXiXgXiXiX.X.XK./.K./..XXXuXuXuXuXq q & %.%.#.#., u , , ",
"S S S H H H *.5 & t i wXwXwXiX_.{.!.!.!.!.OXuXaXfXgXgXgXsXsXsXiXgXiXiXgXgXOX.X/./././.(..XyXuXuXuXq q i %.%.o.+.u u , , ",
"R ~ F F O.O.O.1.&.,.,.i.>.>.>.I.`.[.|.!.!.R.w.w.w.w. X.X.X X_.{.^.`.9.9.9.^.~.L.I.&X}.W.W.>.>.i.>.*.%.&.&.&.&.&., > 4 4 ",
"F R F F O.O.O.%.1.,.,.>.<.>.>.`.`.XX|.!.!.R.w.w.@.w..X X.X X'.].'.^.8.9.9.^.~.I.I.&X&XU.`.*.>.>.p.*.,.&.&.&.X.&.3 t 4 4 ",
"T F F T O.=.O.1.1.1.d.*.K >.<.`.`.].].!.Y._.D D w.D ).)..X X`.].T.R.K 9.K ).^.^.T.}.}.U.U.>.>.K K 1.1.1.&.X.&.&.u , r r ",
"T R T F =.=.O.1.6.1.1.K K >.>.I.`.}.`.T.!.{.D +.w.D ).)./. X].~.~.`.8.K K R.^.R.I.W.I.I.U.>.>.*.K a.p.1.&.o.&.&., , 4 r ",
"A A R ( ;.;.=.6.1.3.2.) ` d.d.}.}.`.`.!.Y.+X*.K a.a.+X.XP. XI.I.{.{.0.0.0.+X+XG.L.W.W.$XW.d.d.K ) p.a.1.&.&.j.j.p t 5 5 ",
"F F ( R ;.;.@.1.7.[ 3.) ) d.d.[.}.}.`.Y.!.+X*.+.a.a. XXX(.(.L.`.{.+X0.c._ XX}.L.L.W.&X&X&Xd.d.) K ,.3.a.4.@.j.j.t y 5 5 ",
"( R R R r.-.;.h.h.K ,.d.d.J G F.F.'.'.{.{.~.>.1.,.*.K.K.XX X].].G.F.` [ 0._.~.'.'.W.W.H.l.G K s.s.*.*.a.j.j.4.4.t t 5 w ",
"A A ( ( t.r.e.t t k z rXuXgXgX|.|.Q.`.K.!.{.qXtXgXsXgXsXgXpXyXyXyXiXgXgXpX.XXXL.L.W.W.&X'.dXsXtXrXe k 2 y.r.r.y.p p # 5 ",
"A A ( ( r.t.-.r r k k uXpXgXgX|.|.'.Q.K.!..XtXtXgXpXgXgXpXfXtXyXuXuXgXgXgX XXXL.G.W.Q.|.|.gXgXtXrXe e 5 y.y.r.y.p t 5 5 ",
"I I I A -. .t.r & ; 7 gXgXrXrXH.F.W.'._._.!.fXtXtXtXpXgXgXfXyXyXwXtXgXpXgXK.P.oX'.W.Q.Y.l.tXtXgXuX5 6 2 y.y.@.@.t 3 e w ",
"I R I R  . .t.> 4 ; ; gXgXrXrXG.Y.R.R._._.).fXfXtXpXpXfXgXgXuXuXwXtXaXpXfXK.P.].].W.W.H.H.tXtXgXgX8 6 2 y.y.w.-.4 t 9 9 ",
"( W E E q.q.t.r r * g gXgXgXsXQ.R.R.R.).). XfXpXfXfXgXgXgXsXuXuXyXyXgXaXgX X X_.'.Q.Q.E.E.gXgXgXgX; ; O u.u.r.r.y u 9 : ",
"E W E ( q.q.t.r > * g gXfXfXgXR.R.R.R.).). XdXfXpXfXgXgXgXgXuXuXiXiXaXgXaX X X_._.Q.Q.Q.Q.gXgXgXgX; ; 2 u.u.u.r.p y q : ",
"W E W R q.q...t r z l gXfXfXgXQ.R.Y.l.).).OXpXpXfXpXgXfXfXfXuXuXuXuXgXpXeX X X_.~.E.E.E.Q.gXgXgXgXj 0 2 y.r.r.r.y y 1 : ",
"E W E E ......y t l l fXpXfXfXR.R.Y.Y.).). XpXpXfXfXfXfXsXsXsXuXwXuXsXaXeXOX X_.~.E.E.Q.Q.gXgXgXgXj j 4 r.r.-.;.y y q w ",
"/ / / / ....q.o.o./ / fXgXfXfX^.^.R.R.OXOXD.pXfXpXpXdXfXaXuXwXuXuXuXeXeXeXD.D.XX_.Q.T.Q.R.pXpXfXpXQ Z #.r.-.-.-.< < 1 p ",
"/ / / E ......o.o./ / fXfXfXpX^.R.R.!.OXOXD.fXfXpXpXdXgXdXdXiXwXuXiXeXaXaXA.D.+X+XT.T.R.`.pXfXfXgXQ ! +.-.-.-.-.< < 1 1 ",
"L L ] ] q.t...#.#.V L fXpXgXgXT.Y.Y.Y.).).OXpXpXfXfXgXdXsXsXyXiXuXiXaXaXeX@X@X).~.Y.H.T.T.fXfXfXpXV V #.-.-.u.;.d < % > ",
"L L ] ] ;.-...X.$.V L pXgXgXgXT.Y.Y.T.).).OXaXpXgXgXgXgXdXdXwXyXuXuXaXaXeX@X@X).).Y.h.Q.Q.gXsXgXgXV Z #.-.-.t.u.< < = < ",
"] / / E k.k.z.o.$./ / gXfXpXgX3X3X1X4X<X<XOXiXiXiXiXiXyXiXyXwXwXwXwXdXdXaX#X+X;X;X1X4X4X4XpXpXgXgXL G $.l.l.l.l.< 1 m 1 ",
"] ] / E k.k.z.$.o./ E gXfXpXpX1X4X1X1X<X<X@XiXiXiXiXiXiXtXiXwXwXwXwXsXdXdX+X#X;X1X1X4X4X4XpXpXgXfXZ Z $.l.l.l.l., < a a ",
"E E ] ] z.z.z.C C / / pXpXfXgX;X1X1X1X#X3X3XyXiXiXyXgXgXsXiXwXwXwXwXaXaXaX9X8X3X4X4X4X*X1XgXdXgXpXQ / C %X%X$Xl.f f 1 : ",
"I P I I + + + l : l g b b v b >X5X>X;X*X*X1XO O y 3 p a 1 % > O y y w e 8 1X1X*X*X:X:X:X1Xx x x c 6 ; 0 1 > 1 1 - & - - ",
"I I I I + + + : g h h c b v b 2X2X;X;X*X;X1XO 2 3 y p a % % O O > y e e 8 :X:X=X=X:X=X5X1Xx x x c 7 7 q > % 1 > - & - 8 ",
"' ' ' I { { + : j z z X X c v 5X5X>X:X2X4X3X3 3 3 3 n f 1 : > > y u 8 8 8 5X5X5X5X=X:X5X5Xh x     h z q % $ N N q w e e ",
"' ' ' R { { + g g b z X X c v 2X5X:X1X2X4X4X3 3 3 O n n : 1 , y u u 8 8 w 5X5X5X5X:X:X5X5Xx h     z k g o o N N q w e x ",
"P P P P =X=X6XpXrXgXgX9X9X#X<Xj j n j :.:.$.| O.} } 7.6.7.7.5.5.5.5.+.+.+.#.#.$.:.n n : : <X<X9X9XsXsXiX6X0X7X-X7 7 6 6 ",
"P P P P =X=X6XpXpXfXgX9X9X#X<Xg ; n n :.:.o.| | } } 6.7.6.6.5.5.5.;.+.+.+.#.+.%.&.n 1 : ; <X<X9X9XsXsXrX0X0X-X-X6 6 6 6 ",
"U U Y Y ,X,X=XpXgXgXgX#X#X9X8Xj n n g :.:.%.} } | | 7.j.6.6.5.5.5.5.+.+.+.1.&.:.&.n n n n 3X7X#X<XuXsXsX-X-X0X7Xh 6 6 6 ",
"U P Y Y ,X,X=XpXgXgXgX#X#X9X8Xk l n n :.:.%.} | | | 7.7.6.6.5.5.k.5.+.+.+.&.%.o.$.n 1 n j 8X<X#X<XyXsXsX-X-X7X3X6 6 6 6 "
};
