/* XPM */
static char *_3762b2fe7b54504e508b613c81b1a4eRfuDtmbyFEECCXe5[] = {
/* columns rows colors chars-per-pixel */
"60 60 255 2 ",
"   c #040D01",
".  c #380501",
"X  c #301404",
"o  c #06350F",
"O  c #323012",
"+  c #053727",
"@  c #322F29",
"#  c #4E1006",
"$  c #661905",
"%  c #781604",
"&  c #6A1411",
"*  c #512A0B",
"=  c #613E0B",
"-  c #733211",
";  c #7B1F37",
":  c #532B2B",
">  c #553C3A",
",  c #72372E",
"<  c #673C39",
"1  c #304D1E",
"2  c #0C4D32",
"3  c #354D36",
"4  c #554813",
"5  c #6A4716",
"6  c #514C31",
"7  c #58413E",
"8  c #684425",
"9  c #785426",
"0  c #77453B",
"q  c #6E5333",
"w  c #546B3E",
"e  c #736430",
"r  c #523E4A",
"t  c #543E51",
"y  c #6E3E41",
"u  c #385546",
"i  c #1D624D",
"p  c #2C6A51",
"a  c #584448",
"s  c #4F4C51",
"d  c #684C47",
"f  c #774A45",
"g  c #7A4F4D",
"h  c #695747",
"j  c #6C5444",
"k  c #6C534A",
"l  c #765546",
"z  c #73544C",
"x  c #7A514E",
"c  c #6B5552",
"v  c #6A5753",
"b  c #755653",
"n  c #7A5351",
"m  c #735C55",
"M  c #556B52",
"N  c #77634C",
"B  c #786559",
"V  c #7B705B",
"C  c #5B6A61",
"Z  c #767765",
"A  c #71746F",
"S  c #871A03",
"D  c #941D02",
"F  c #8C1D11",
"G  c #8B2508",
"H  c #992306",
"J  c #912C17",
"K  c #A82505",
"L  c #B72A06",
"P  c #A62815",
"I  c #B4321B",
"U  c #811C21",
"Y  c #90312A",
"T  c #963834",
"R  c #B03329",
"E  c #B73734",
"W  c #CD320A",
"Q  c #C83418",
"!  c #D9361B",
"~  c #EB3C13",
"^  c #CA3529",
"/  c #D73729",
"(  c #CF3735",
")  c #E93C31",
"_  c #855119",
"`  c #8F5134",
"'  c #AE4B35",
"]  c #8B6534",
"[  c #896A31",
"{  c #896A35",
"}  c #876739",
"|  c #8B6C3A",
" . c #926536",
".. c #93663A",
"X. c #946A3E",
"o. c #98773C",
"O. c #DB410A",
"+. c #CC4637",
"@. c #FD442B",
"#. c #FB4437",
"$. c #A23B49",
"%. c #CE3B47",
"&. c #E83D46",
"*. c #924C46",
"=. c #86574A",
"-. c #8A5D54",
";. c #955E57",
":. c #B14D4D",
">. c #856641",
",. c #8B6643",
"<. c #836A45",
"1. c #8B6946",
"2. c #876648",
"3. c #8C664A",
"4. c #846C4A",
"5. c #8D6A4B",
"6. c #956547",
"7. c #926A43",
"8. c #916C4C",
"9. c #887149",
"0. c #8A704D",
"q. c #9D7B43",
"w. c #967748",
"e. c #9B754B",
"r. c #9B7C4C",
"t. c #8D6354",
"y. c #8C665B",
"u. c #8C6858",
"i. c #946256",
"p. c #946559",
"a. c #956858",
"s. c #8B7657",
"d. c #9C7B51",
"f. c #987659",
"g. c #967B5A",
"h. c #997C5A",
"j. c #A17A49",
"k. c #B36557",
"l. c #A57657",
"z. c #A27C54",
"x. c #A47659",
"c. c #A5795B",
"v. c #8C5F64",
"b. c #8B6765",
"n. c #976F6F",
"m. c #877B6A",
"M. c #947A62",
"N. c #997867",
"B. c #857674",
"V. c #A57964",
"C. c #B3706C",
"Z. c #A47A74",
"A. c #C94748",
"S. c #D84749",
"D. c #C65858",
"F. c #D65555",
"G. c #FD4A47",
"H. c #EC4E53",
"J. c #FC565A",
"K. c #D86558",
"L. c #D15864",
"P. c #EB5C6E",
"I. c #FA5967",
"U. c #D86767",
"Y. c #CC706A",
"T. c #C77975",
"R. c #D87A76",
"E. c #FA6369",
"W. c #EF6D74",
"Q. c #59875C",
"!. c #528566",
"~. c #788377",
"^. c #708972",
"/. c #A0803E",
"(. c #9E824C",
"). c #9D8054",
"_. c #A18246",
"`. c #A88856",
"'. c #AB8E5C",
"]. c #B38E5D",
"[. c #AE9056",
"{. c #AC935D",
"}. c #B39058",
"|. c #B2935D",
" X c #9A8266",
".X c #898576",
"XX c #998678",
"oX c #92927C",
"OX c #A78A6A",
"+X c #B48A6B",
"@X c #AE9462",
"#X c #AD916D",
"$X c #B29361",
"%X c #B2926D",
"&X c #A68976",
"*X c #AB9376",
"=X c #B49674",
"-X c #B4A37C",
";X c #D0887C",
":X c #EE867A",
">X c #C2A57D",
",X c #CF7B82",
"<X c #F17783",
"1X c #769185",
"2X c #71A897",
"3X c #998B85",
"4X c #8D968D",
"5X c #98978A",
"6X c #AA8A86",
"7X c #AF958D",
"8X c #B89789",
"9X c #91A898",
"0X c #AFA594",
"qX c #B5A598",
"wX c #9AAEA7",
"eX c #B8A5A5",
"rX c #B2BAB1",
"tX c #D88C88",
"yX c #CF9290",
"uX c #FC8688",
"iX c #F08B8F",
"pX c #E79795",
"aX c #FC999A",
"sX c #C9AB94",
"dX c #E4A49C",
"fX c #F7A79D",
"gX c #D39DA1",
"hX c #F89CA6",
"jX c #D0B4AD",
"kX c #D5B9B7",
"lX c #E7A9A4",
"zX c #FCA9A9",
"xX c #E9B4AC",
"cX c #FDB5AB",
"vX c #FFA9B5",
"bX c #E4BAB6",
"nX c #FBB7B7",
"mX c #B6C2AE",
"MX c #B7C6B8",
"NX c #D5C7AD",
"BX c #C8C5B8",
"VX c #D5C6BA",
"CX c #E6C8B8",
"ZX c #FCC4BB",
"AX c #FEBBC6",
"SX c #D4CEC7",
"DX c #E8C8C6",
"FX c #FDC7C5",
"GX c #F2D5CF",
"HX c #FBD8D5",
"JX c #D8E2D8",
"KX c #F5E6D7",
"LX c #FDDAE2",
"PX c #FBECE4",
"IX c #FAF4EB",
/* pixels */
"o.o.q.o.$X$X$Xj./.o.j.|.}.$X$X$X$X$X$X$X$X$X$X$X@X'.|.$X$X].=X>XsXsX=X%X@X). X).g.= 4 5 5 M. X X X*X&X=X=X*X#X%X@X%X%X%X",
"o.o.q.q.$X$X|.q.o.o.o.|.].$X$X$X$X$X$X$X$X$X$X$X+X].{.{.@X].R.E.<XW.Y.sXqX8X*X X X= = 5 5 f.g. X X&X*X*X=X=X#X%X%X@X%X%X",
"j./._.j.$X|.|._._.j.j.'.'.].@X].].].$X$X].$X'.@X$X$X-XNX>XNXk.) ) R :.HXPXDX=Xg.f.= = = = g.N. X XOXOX#X#X#X%X%X%X%X=X%X",
"j.q._.`.$X$X$X_.j._.j.'.].].$X%X].].$X+X$X@X'.'.l.sXSXJXSXGXl./ ) :.Y.nXHXNXOX).s.= = = 4 ).OXN. XOXXX#X#X*X%X%X%X%X;X=X",
"-.3.i.u.a.a.a.u.t.3.-.t.u.p.p.p.a.p.p.y.p.p.&X.X* d s C h * - O.J.cXpXk.R i.f.N.g.q 8 5 8 M. XM.M.s.s.5.3.2.} =.,...,...",
"-.-.u.u.a.b.a.i.t.t.t.t.u.a.a.u.u.p.p.p.N.qXJXVXM 3 Y ` Y X 4 G D.ZXzXF.R N f.N.Z.&X8 8 8 M.XXM.M.a.s.t.3.3.,...} ,...=.",
"3.t.a.a.t.t.u.p.b.a.p.t.-.u.u.3.t.6.jXX @ 1 # a.kXFXU.' `  XM 1 1XPXAXL.H sXKXJXR ;Xd.5 8 M.N.g.s.t.5.2.2.2.7.,.7.7.7.7.",
"8.8.8.8.2.1.2.8.8.8.8.,.,.8.5.5.f.0XkX.X^.C M.Z.8XyXR.U.k.V w p 1XbXzXW.E sXCXnXR.pXCX%Xq  X XM.N.0.5.8.,.1.6.3.7.7.7.7.",
"8.5.8.8.1.,.,.8.8.8.8.3.,.5.5.8.8X9XM MXBX9XoXZ.S.( fXHXfX:.F.V.-.( %.aXAXY.H +.ZX:X/ W s. XN.M.M.8.8.5.7.5.8.3.7.1.7.7.",
"5.1.1.1.,.>.} >.>.>.,.,.,.2.1.8.OX4XM MXMX9X5X+X( Q zXHXfXE D.n.-.%.%.iXnXR.D P ZXpXW W N N.M.M.s.s.0.5.,.,...>...} ` ] ",
"1.1.2.1.>.>.} } } >.} ,.,.1.<.0.OX6XMX^.^.^..Xn.&./ W.:X:XzXD.R I ^ S.NXGXR.I Q fXR.I A.8.N.M.M.M.0.0.5.,.>.,.>.} } ] 9 ",
"r.(.w.w.d.).r.| | X.o.d.(.).d.(.w.(.BXu 3 M Z =.( ( P.K.uXHX:.P ( L ^ VXPX;XK R cXW.K +.g.g.s.g.g.g.g.g.h.h.`.h.h.`.c.`.",
"(.).w.w.(.d.w.{ | o.| (.).r.).w.r.r. Xd M A 4Xn.6.:.S.I.W.cXK.+.A.+.K.NXPXuX^ H.W.:XY.k.M.f.g.g.g.g.g.h.h.).c.`.c.`.`.N.",
"r.r.o.w.).).w.[ [ [ [ r.(.r.).r.(.d.V.g M 1X5XZ.V.k.! W W K.zXcXzXcXcXGXIXhXI.W.^ U.h.).} h.g.g.g.g.g.h.d.d.g.e.e.f.e.e.",
"r.r.w.w.).).r.[ 9 [ [ (.w.r.w.w.c.=XxX0 j m.0XA b.C.^ L Q E.aXzXfXaXfXHXIXzXP.E.) ;.9 e e h.g.g.g.g.g.d.g.d.e.d.d.d.e.f.",
"z g z g z x x g x x x x z n n g eX5Xa.&X3X3XA 4XjXdX+.Q W ( ) ^ H.<X:XzXZX<X^ &.Q n.=.n g l x f f g f x f l f x l f f ` ",
"g g g n g n g x g n g n eXb.b.eXIX4X@ 0X5X~.6 &XvXvXU.+.I P H P R U.W.aXvXW.R :.# 9XqXn B u.b.f f g f x f f l f f l ` 0 ",
"g g n n n x x x n g g n GXzXzXSXSXB.@ 4X~.4X5X8X<XuXA.L R R.P P :.D.F.W.uXK.R E $ ^.DXeXwXwXJXz z n =.x 0 0 f q =.x x f ",
"g g x x g n b x g g x x lX! ! E y < 6 A m.8XxXpX/ ! - X A JXA o 2 : < $.T & q > X > H.&.R S xXz x x n x 0 0 0 0 f l x =.",
"{.@X{.{.{.'.{.{.@X'.{.@XpX^ F.FXFX3X2 1Xn.tXCX:X~ @.5 . r b.kXGXbXgXtXy # :.gX8X$ Z.hXiX:.F dX{.{.@X@X@X_.(.(.(.'.'.@X@X",
"{.{.{.{.@X{.{.{.{.{.{.{.pXQ F.HXIX6X+ 1Xv.gXnX:X~ ~ * . @ . GXIXLXAXnX*.. ,XAXbX, Z.AXhXY S lX@X{.@X@X{.(.(.(.(.[.'.{.@X",
"$X{.@X|.@X@X@X{.{.@X{.@XbXjXgXiXhX,Xv.v.y n.sX+X#.G.J - ; u 1XwX4XB.B.p 2 b Z.6X; y.,X,X7XqXmX@X{.@X@X@X(.(.(.(.'.'.@X@X",
"t.3.1.5.5.3.2.5.3.3.1.3.6.6.;XP S yXjX. . -.a.z.J.E.' T $.u +     . @ 2 p t U # & , Y :.kXN.p.u.y.y.y.y.-.-.y.y.y.y.y.y.",
"5.5.3.5.3.1.t.3.3.3.3.1.6.=.} ` T <XhXS U =.B s.E.E.^ F 6 v.y : : O r r C u + # : 7 $.$.b.b.b.i.y.a.y.y.B t.n y.y.y.b.y.",
"2.3.3.3.3.3.3.3.3.3.3.2.3.=.6.ZXHX,X%.E T $ * 4 ) G.! H .XjXDXHXDXrXrX4XM 4XrXrX> 5XLX7Xy.y.u.y.y.y.y.y.y.y.y.y.s.b.p.y.",
"3.3.3.3.3.3.2.3.3.3.3.2.6.a.jXPXIXyXF R T $ O 6 H.G.~ W k.NXJXKXJXMXMXXXm 9XSXSX@ 2XIX6Xy.y.y.t.y.y.y.y.y.y.y.y.b.b.y.y.",
"3.3.8.3.3.3.1.3.7.3.3.8.nXgXdXsXgXsXiXtXgX*.. * ( / ) ) k.oXmXSXrX4X5X5X3X.X~.~.9XQ.(.{ | | { [ [ ] { | { } } } 1.| } } ",
"5.3.3.3.8.5.3.1.3.3.3.3.pXW ! / / cXPXKXHX.Xo o $ D ) #.O.G sXVX0XV .X1X9Xv.. : GX .| X.| o.{ [ [ } } | } } | } | | ] ] ",
"6.3.3.3.3.3.3.6.3.3.,.6.lXQ ( H.&.xXFXCXGXB.o o $ H #.@.O.J 8XBX7Xh Z ^.1Xb.# c SX9 { ] [ | | [ { | | | { { } | 1.| { | ",
"3.3.3.3.3.,.,.3.,.5.3.3.hXR F.aXzXcXZXcXvX:.. @ p p , % D $ g -.< + + + + c B.A 2 w | [ ] | { { { | | 7.{ } { } | | } } ",
"3.=.3.8.3.3.3.2.>.>.} N FXxXzXW.E.uXuXE.<XC.4X~.a : 2 2 7 c B.3XA C s A B.v.v.v.6X4Xn., 8.3.5.8.8.1.,.,.8.8.5.5.,.,.8.3.",
"6.3.3.5.t.8.5.>.<.} >.} d.7XDXA.Q +.E.Q E pXJXwX: . i p =.B.7X0X4XA 1X7XeXZ.: g VX~.. $ 7.1.5.8.5.1.,.,.8.8.5.8.7.,.6.8.",
"3.8.i.5.t.3.8.5.5.1.1.9.1.<.=XW.U.k.C.c.f.7XMX4X> & $.D.-.A A 1XB.A v.~.1XA b.n.gXB.. * x.,.,.8.8.5.5.>.6.3.,.6.,.} 8.3.",
"3.t.i.3.3.3.8.u.5.9.5.1.9.<.*XHXHXpXX.xXjX0X4X4Xc x ,X,Xm @ @ 3 @ @ @ 2 2 3XjXkXyXb.. < N.6.1.8.8.,.1.,.,.8.8.6.,.,.8.8.",
"j.e.q.j.j.j.e.j.j.j.j.q.w.w.-XPXPXqX..xXZXyX*XZ.b y P.<XL.$ $ # # # & : : ,XnXkX7Xb.  3 ..x.x.V.c.x.c.e.x.l.l.l.l.l.x.l.",
"j.e.j.j.e.j.j.j.j.r.j.w.r.w.=X=X;X,.` k.k.:.p.=.: r %.L.D.` =.h.Z.yX6Xg . *.k.p.n.m   3 6.c.x.c.V.x.l.l.x.l.l.l.l.l.c.c.",
"j.l.l.z.z.`.x.d.j.j.j.r.j.d.*X/ ! / ' K L L L L D % w ^.:.O.:XG.I.AXdX5 X o 1 H L.%.  O f.x.V.V.V.c.c.l.c.l.c.c.l.l.l.c.",
"d f c c c k v a a r r a a s B.H.~ +.+.R L +.S.+.K J w M :.Q G.J.I.uXtX>.4 1 O J %.E O @ B d d k h d j k b m k k d d k k ",
"k c c d d c a t a t r t t t B.S.W E.R.` 4 -XcXuXH.) L % O _ ' @.#.W ^ G.@.9 * * # & & T B d d k k d k d z c j k d d h j ",
"c c c c c v v a a t t t t t A %.! G.U.` 4 *XcXuXG.#.K % 4 5 ' @.#.! ^ #.G.q * X # & & T c b c v c k d j m B B B z z m m ",
"b c c c v v v a a t t r r a s 5XVX5X.XmXCXiXW.E.+.+.L H # - ' R W.CXNXH.&.5 $ G ;Xp.X l B v v m m h j d B m B B z m m m ",
"@X|.$X@X#X@X#X#X#X&X#X X XM.N.9 VX0X.XKXPXaXJ.#.L Q K K $ $ G K :XIXPXI./ - $ G nXC.. B {.[.[.`.[./.q./.[.`.}.[.[.[.[.[.",
"$X|.$X$X@X@X%X#X#XOX#X X XN.M.5 *XeXA SXCXnXfXaXE.E.P % U 9 OXyXk.$ $ V.yX5.# S A./ D Y @X|.[.[.[./././.[.[.[.}.[.[.}.[.",
"@X@X'.'.@X$X#X=X=X*X*XN.V.s.f.= oX9XC BXGXCXxXaXW.E.Y S S Y C.yXx.% J M.0X*.S P A.:.% 8 0X|.|.[.}./././.[.`.}.}.|.|.|.|.",
"|.$X'.'.'.'.%X=X=X*X*XN. Xs.f.= XX4Xp BXkXV.J E ~ / yXZXtX% yXbX8X*.k.qXBXC.D K K ;XdX$X$X$X$X[.[.q./.q.[.[.|.|.|.|.|.|.",
" . .....7.6.,.8.3.8.a.N.n.Z.N., Z.B.: DXMXA # Y J T xXPXlXD pXFXiXu.N.lXAXC.% % % C.OXi.a.8.-.i.;.i.a.i.i.a.i.i.a.a.a.a.",
"....X...7...6.t.3.a.8.N.N.V.N., &XjX6X7X1XQ.=.*.T T lXFXyXS Y.iXR.n.m.T.tXk.% % T.gXa.i.i.;.-.i.;.i.i.i.i.a.i.i.i.a.k.i.",
" . .....6.....6.3.8.i.N.n.Z.XX, n -.DX. X Z 0X5XXXv.aXvX,XS P I &.W.I.%.Y $ # 6 kX6X-.-.-.i.i.i.p.p.a.a.i.i.i.;.i.i.;.i.",
"....o.| X.| 1.1.5.t.8.N.N.Z. X8 8 0 jX. O B.0X.Xb v.aXvXyXF I R &.I.I.%.Y 0 . X &X-.-.-.-.p.p.p.p.p.a.p.i.i.i.i.i.i.i.i.",
"{ [ { { [ [ } | } 9.9.s.s. X X5 q e bXR T =.Z ~.,X<X$.; *.p Q.C z T R M A 6 X * 6Xs.s.4.0.4.4.4.4.<.<.<.4.4.9.5.9.0.5.0.",
"[ { { [ | e e | | 9.9.s.s. X).e e e HXY F =.Z Z W.<XY $ T !.!.Q.h S % M ~.6 O : sXs.s.4.0.4.4.0.4.N >.<.1.4.4.9.9.9.9.5.",
"[ { [ [ { { } <.e 9.<.s.s.s.^.9 e yXaXtXT.;XtXtXE $.*.* h C.U.L.F.D J F.U.:.F Y DX<.4.<.<.4.4.N 4.>.<.<.4.9.5.4.>.4.>.} ",
"x.x.x.x.`.c.c.h.x.c.c.N.c.OXOX9 7.W.:.FXHXnXcXtXD S ` j y.;XU.U.F.S P P.uXk.U T HXOX7.7...h.h.z.z.z.z.z.j.z.e.e.7.X... .",
"x.x.x.x.c.c.c.c.x.x.c.V.c.V.c.9 w.iXP.nXFXdXfX;X- $ ` :.k.tX<XuXP.^ S.S.P.A.:.L.AXkXe...7.`.z.z.h.z.z.z.z.z.e.e.o.X. . .",
"x.x.x.x.x.x.x.x.l.x.f.x.f.x.l.9 =X,X- Y H D % S 9 ` I.E.uXcXFXHXZXcXcX6.% R.zXhX%.tXOX.. .e.e.e.e.j.d.l.d.z.e.r.X.X.] ] ",
"c.k.x.x.x.x.x.f.f.x.x.f.l.f.c.9 OXbXgXlXcX:.J R 5 8 G.&.S.T.T.;X;XU.H._ - A.W.P.^ tX&X} ..w.w.q.e.d.e.j.l.j.e.e.X...] ] ",
"n b b n z b z h l m h j N j j h B.qXN .XGXyX% Y H P K K K H G K K K K L W K G H G 8Xd > > 7 7 a a c d v v B v v v v v v ",
"b b b b z n b z h l j N q j j q q h q m 7XZ.< b.*.i.*.T T ` ` Y ' J Y I P P J ' *.sXd > > 7 7 a d c v v v v v v v v c h ",
"b b b b k k f h j l j j n j h N h h h h B d k l f g < < y y f f f f d 7 0 d f f 0 k 7 7 7 7 > a a d c v c c v v c c v v ",
"b b z z f k k d j h h j s.l q N q h N z l j l z x g < < y < > 7 > 7 > 7 r > > r r 7 a > 7 7 < d a h a v v v c v c c v v "
};
