/* XPM */
static char *_1da7c24e561474dd32b90bd6b7cb881PIrF08KNK64R74RI[] = {
/* columns rows colors chars-per-pixel */
"60 60 252 2 ",
"   c #010001",
".  c #0B0201",
"X  c #04050A",
"o  c #130201",
"O  c #180604",
"+  c #091602",
"@  c #191507",
"#  c #010212",
"$  c #030818",
"%  c #180B17",
"&  c #05141C",
"*  c #171619",
"=  c #290403",
"-  c #370502",
";  c #3A1509",
":  c #2A1B14",
">  c #0E330C",
",  c #39281A",
"<  c #2F3017",
"1  c #021926",
"2  c #121529",
"3  c #2A172B",
"4  c #1C222C",
"5  c #042737",
"6  c #1A2634",
"7  c #102B34",
"8  c #2A242B",
"9  c #32302D",
"0  c #282A37",
"q  c #3D343A",
"w  c #430501",
"e  c #4A0804",
"r  c #580A04",
"t  c #491A08",
"y  c #59140B",
"u  c #4D1A18",
"i  c #71170D",
"p  c #681916",
"a  c #502812",
"s  c #613E0A",
"d  c #6B2E19",
"f  c #491C38",
"g  c #4B3229",
"h  c #42353C",
"j  c #443A38",
"k  c #563C39",
"l  c #792725",
"z  c #65362E",
"x  c #733524",
"c  c #364C3B",
"v  c #644313",
"b  c #54413E",
"n  c #5A483A",
"m  c #515031",
"M  c #6D4D32",
"N  c #64523B",
"B  c #76653B",
"V  c #0E3145",
"C  c #27314C",
"Z  c #2A3849",
"A  c #393A46",
"S  c #443A42",
"D  c #473C45",
"F  c #593544",
"G  c #6C3B51",
"H  c #364554",
"J  c #264D62",
"K  c #46414B",
"L  c #4C424C",
"P  c #554242",
"I  c #56464B",
"U  c #4C534E",
"Y  c #595A49",
"T  c #494654",
"R  c #474959",
"E  c #4C4C5B",
"W  c #564B55",
"Q  c #59525B",
"!  c #6B4C4D",
"~  c #794D49",
"^  c #6C5643",
"/  c #6A5748",
"(  c #6D544B",
")  c #73554D",
"_  c #79534B",
"`  c #6B5552",
"'  c #6B5955",
"]  c #755653",
"[  c #5B6256",
"{  c #696545",
"}  c #766851",
"|  c #464D61",
" . c #4A4E63",
".. c #5A4D68",
"X. c #4D5264",
"o. c #4D5569",
"O. c #515466",
"+. c #525669",
"@. c #535A6D",
"#. c #5A5B6A",
"$. c #555C71",
"%. c #595E71",
"&. c #695869",
"*. c #5C606E",
"=. c #5D6173",
"-. c #5B6379",
";. c #626473",
":. c #65697B",
">. c #6B717C",
",. c #777370",
"<. c #87251A",
"1. c #922C1C",
"2. c #892B28",
"3. c #962B27",
"4. c #89332C",
"5. c #94332E",
"6. c #9C332B",
"7. c #9A3732",
"8. c #A7352B",
"9. c #AD352D",
"0. c #A33B36",
"q. c #AB3D36",
"w. c #AA3C37",
"e. c #B43E36",
"r. c #A4451C",
"t. c #924D32",
"y. c #A34B2C",
"u. c #AB453A",
"i. c #B64439",
"p. c #BC443C",
"a. c #AD5232",
"s. c #B85838",
"d. c #886838",
"f. c #93663A",
"g. c #95693C",
"h. c #8D7039",
"j. c #9A783D",
"k. c #C3443C",
"l. c #C34A3F",
"z. c #C94A3C",
"x. c #CA503A",
"c. c #84564A",
"v. c #8A5D5F",
"b. c #B85743",
"n. c #B25348",
"m. c #8B6642",
"M. c #866946",
"N. c #8C654B",
"B. c #8B6C4B",
"V. c #936742",
"C. c #926A44",
"Z. c #916D4D",
"A. c #89704B",
"S. c #997845",
"D. c #9B754B",
"F. c #9B7C4E",
"G. c #8D6354",
"H. c #896754",
"J. c #946256",
"K. c #956659",
"L. c #93695C",
"P. c #8B7456",
"I. c #9D7A51",
"U. c #98785A",
"Y. c #BF6048",
"T. c #A17A47",
"R. c #A27B53",
"E. c #A67857",
"W. c #A47559",
"Q. c #A47A5B",
"!. c #875668",
"~. c #906A6D",
"^. c #967964",
"/. c #A47A63",
"(. c #AC7A78",
"). c #C64741",
"_. c #C64B42",
"`. c #CB4D43",
"'. c #D34E45",
"]. c #CD5346",
"[. c #D25146",
"{. c #D85649",
"}. c #E5594C",
"|. c #EA5D52",
" X c #F35F54",
".X c #D6664A",
"XX c #D46A49",
"oX c #DC6851",
"OX c #DE7554",
"+X c #E4674E",
"@X c #E76853",
"#X c #F66856",
"$X c #E87859",
"%X c #F77A5C",
"&X c #FD7B61",
"*X c #958554",
"=X c #9B8255",
"-X c #A3814B",
";X c #A2815C",
":X c #AD8E5D",
">X c #AC9159",
",X c #B09056",
"<X c #B2935E",
"1X c #9C8267",
"2X c #93866E",
"3X c #A48869",
"4X c #AB9368",
"5X c #B29361",
"6X c #B2916C",
"7X c #A68C73",
"8X c #AF8E73",
"9X c #B39472",
"0X c #B89473",
"qX c #ED815E",
"wX c #F6815F",
"eX c #FD8363",
"rX c #FB8864",
"tX c #FF9570",
"yX c #6B7185",
"uX c #757985",
"iX c #7B7E86",
"pX c #B57888",
"aX c #C37B8D",
"sX c #7C8087",
"dX c #7E8189",
"fX c #7D8193",
"gX c #82858C",
"hX c #85888E",
"jX c #868991",
"kX c #868A97",
"lX c #898C92",
"zX c #8F9399",
"xX c #BB9285",
"cX c #9FA38A",
"vX c #B1A58A",
"bX c #C79589",
"nX c #C8AA8B",
"mX c #D0AE95",
"MX c #D7B798",
"NX c #D590A9",
"BX c #DDACA5",
"VX c #E0C69B",
"CX c #DAC5A8",
"ZX c #E5C9A9",
"AX c #E9CDB4",
"SX c #EDD3B4",
"DX c #F7DBBA",
"FX c #FAE2BD",
"GX c #FDE8C6",
"HX c #FBEECB",
"JX c #FAEFD1",
"KX c #FFF7D5",
/* pixels */
"j.j.j.-X<X5X5XS.j.j.j.<X<X5X5X5X5X5X5X5X6X5X5X5X5X<X5X:X5X5X4X6X9X9X9X9X5X1X3XU.*Xs s v v P.U.1X1X7X7X9X9X9X9X7X6X6X6X6X",
"j.j.j.-X<X5X5Xj.j.j.j.<X5X5X5X5X5X5X5X5X5X5X5X5X:X<X5X<X:X  X < 6X9X6X9X4X;X1XU.U.v s v v U.P.2X1X7X7X9X9X9X9X9X5X6X5X6X",
"S.j.-X-X5X<X<X-X-X-XS.:X:X<X5X5X5X5X5X5X5X5X5X5X5X5X5X4X< R X.2 m 4X6X6X3X=X3X^.U.s s s s U.*X1X1X7X1X4X8X4X4X9X0X9X6X0X",
"T.T.-X-X5X<X<X-XT.T.T.:X:X<X5X<X5X5X5X5X5X5X5X5X5X5X-X  C yXiXX.& c 6X6X3X;X=X=XU.s s s s ^.U.2X1X4X4X7X7X8X6X6X6X6X0X0X",
"c.G.H.G.L.L.L.G.G.G.G.G.J.K.L.D.a } J.G.L.L.L.L.K.P.@ Z %.iXjXyX| $ m N.N.U.^.^.^.v v + @ 2X^.U.^.L.P.N.B.m.m.m.m.f.m.f.",
"G.N.K.G.L.L.L.G.H.H.G.G.G.D.x 3 Z $ { L.G.K.L.L.L.} X yXiXjXgXgXfX2   m.Z.^.U.^.^.v q 4 0 > 9 ^.^.P.P.H.M.B.m.f.f.m.c.f.",
"G.G.L.L.G.J.G.L.L.L.L.H.c.  5 J uX  M c.N.M.} < m q H :.fXsXiXhXiX| A g : c U.^.^.M   X.-.6 # 0 P.H.P.M.N.m.m.V.m.V.C.C.",
"Z.Z.Z.Z.m.M.m.B.Z.Z.Z.m + =.fXsXyXH 8 U.P.b - i   X -.$.sXsXpXhXuX-.Z   r w < ' 2X9 C ..uXjXiX1 < Z.Z.N.m.m.N.Z.S.C.C.C.",
"Z.Z.Z.Z.m.m.m.A.Z.Z.m o >.zXhXfX:.yX$   u r y }.i   $.=.gXiXiXhX>.=.5 - }.2.r e 9   o.=.gXlXkXiX1 < B.N.A.C.Z.Z.C.C.V.C.",
"B.M.m.M.m.m.m.c.d.m > ..gXlXpXfX:.$.5 . <.n.{.<.O A X.=.hXgXdXjXuX+.| * p `._.6.w X H =.sXgXgXhX-.5 @ Z.m.m.d.m.d.d.t.d.",
"m.M.m.m.d.m.d.d.m @ ..$.>.lXlX>.X.-.1 w 0.w.#Xr   &.o.X.>.jXlXiX@.o.*.& . }._.7.3.  H @.;.sXjXgX@.@.6 * A.m.m.d.d.d.d.d.",
"-X=XS.F.=XI.S.h., 2 yXX.*.=.;.+.o.&.# - ).'.}.y   Q $. . .*.;.@.| @.#.1 = '.'.`.2.  H +.X.=.;.%.O.@.-.  1XU.Q.3XI.Q.R.I.",
"=X=XS.S.*X=XF.m : j +.@. .| E o.yXA     = 3.&Xd   I E +.O.R |  .o.X.L $ w %X_.-       @.%. . . .@.o.T 8 9 =XQ.=X;X;XQ.Q.",
"F.S.S.S.F.=XF.  $ L D +.$.+.@.E O.    C V # .Xy.  D K $.O.O.o.O.@.X.P $ a %Xu 5 7 4   D E +.@.@.@.K h D   P.D.F.F.I.D.D.",
"F.F.S.A.-XI.=X@ $ W h D T D T Q =   @.zXgX  r.u.  Q S E $.@.@.@.O.D W # y $X  -.kXiX6   j W K T T h S S   P.U.F.I.F.D.W.",
"_ _ ~ ~ _ ] ~ @ $ D S h q h W 3   E kXzX>.C g y.a 8 h S E T T E K h 0 , y.x 6 @.kXlXuX2   D S q h h D S   } _ _ ~ ~ M c.",
"~ ~ _ ~ _ ] N   3 L S S h W 8 X Z iXkXjX;.yX# y.y.  ' A h h h q j Q $ a XX  $.=.sXjXkX@.1 % L S S h D S   9 ~ ~ ~ c.c.M ",
"] ] _ ~ c.{ =   5 W q h W q   & uXuXdXkX>.$.X r.%X  1 W h S h h W 7   ].XX   .=.hXdXiXuX+.  o W D h L L   w n _ ~ ~ c.~ ",
"c.] B B H.  OX].  6 W W 1   * A sXzXkXsX+.@.C , +X.X  & W W L W 0   8.$Xd 0 o.+.>.hXlXlX@.8     L W K $ w eXe ^ c.n c.c.",
"5X]   # < X u.eX3.  $ X y - V :.*.>.>.@.| o.yX$ y tX{.r     . . o i.rXy.  :.o.X.E :.>.:.=.o.  r   $   w #X%X= N 4   m 5X",
"5X  q yXV   3.%XrX<.r y #Xi 1 :.X.R R X.+.o.:.$ d tX+Xe 4 2 * 4 O i.tXa.  -.+.o.X.| R E @.J o }.<.e r +XtX@X=   X.:.  4X",
"D   R =.-.  <.}.wXrX%X#X3.O Z #.O.o.o.O.X.@.=.  1.#XO V -.$.$.-.J X Y.z.   .@.O.o.o.+.O.@.X.* p }.%X&XrX@X[.. V :.$.8 N ",
"  A @.@.@.0 O 9.|.oX$X}.  X ;.@.X.O.+.X.@.+.L X t = V yXO.>.yX*.%.J X w   S E @.+.O.+.o.o.#.Z   e.%X$XoX'.p   R $.o.*.  ",
"   .%.O.@.Q   i {.k.w.`.- $ W X.$.@.@.$.O.h L % X V ;.E >.lXlXgX#.@.o.X   D h E @.@.@.@.@.E 9   e.e.e.k.].  & *.+.o.=.* ",
"  R $.O.@.L * o w.}.5.i.- & F D E T T E D h W   & yX+.>.lXdXsXhXgX*.:.A   W S h T T T E T j 0 . 9.7.).[.y   9 E @.O.$.& ",
"  R *.o.+.E W   <.}.5.{.. # Q h h h h q h D q . 0 @.:.lXsXdXsXsXjXsX@.A   8 S S h h h q h L Z   b.0.`.`.  5 Q X.+.+.%.% ",
"  R -.o.o.=.T   3.}.4.OXs.X 7 I q h S q D Q   X ;. .;.hXdXdXdXdXhX>. .#.0   L L h h S S D D X d $X7.).[.O & %.$.O.+.%.* ",
"  K =.o.o.o.W   <.|.7.].tXy.  V T I I L 6 6   1 :.| ;.jXdXdXdXdXdXuXX.-.A   8 1 L L L L K # t rX%X0.).`.  1 ..+.@.@.@.X ",
"  q .. .X.D 0 = 9.{.`.w..XtXy.  1 $ $ 1 , =   q =.| :.lXiXdXdXsXhXiX| =.R     t & $ $ 1 # t rX%Xw._.].`.y * q T  .O.W   ",
": 8 S S j W   1. X).`.0.2..XtXb.t t t t XXy.  #.@.E *.iXdXdXiXgXgX>.X.o.+.1 e $Xa t t t a rX%X0.5.).`.[.|.  1 I h h q : ",
"m.  A D S 9 O e.].b.`.'.7.0.oX$X%X&XeXeX#X-   ..@.o.R *.jXdXiXjX>.E X.+.O.4   p.eXeX%X%X%X$Xp.5._.`._.p.{.i & q D W   A.",
"N.O 8 D W   8.}.2.u.'.`.).`.k._.p.w.w.i.p.-   O.@.O. .@.iXjXjXhX:.X.X.@.#.4 . 7.e.w.w.i.).).`.`.`.`._.5.w.@X= & W 2 . I.",
"N.N.: & A . 8.0.l b.[._.`._._.[.w.4.5.4.'.i   W o.@.o.| @.uXiX:.| O.@.@.Q 7 = l.7.5.5.5._.`._._._.`.].7.l n.y & 8 @ Z.N.",
"N.Z.N.,   l 7.2.3.b.[.'._._._._.`.`.'.'.#Xw X I D o.$.+.X. . .X.o.@.@.K L 5   z.}.`.`.`._.`._.`.'.'.`.w.2.2.0.O o L.Z.B.",
"T.V.T.T.@ p 7.u.p = 5.e.).{.`._.`.`.).b.'.2.O A S D E  .@.+.o.@.+.E T h q * y _.l._.`.`._._.[.`.w.w.- w 5.7.7.  U.W.E.Q.",
"T.T.D.T.O p n.p O t 2.u.u.0.).[.`.`.'.5.5.#Xr X W h q D E O.E O.T q h W 1   }._.l l.`._.[._.e.u.n.5.; = - 5.w.  U.E.Q.Q.",
"E.E.R.E.. l 4.  u.eX+X$Xn.2.0.u.k.].`.w.5.}.l   A L L h j j h h h D L H X w `.p.5.).'.`.i.0.4.u.$XoX%X@X= = u.  1XE.Q.Q.",
"! ~ ( ` : y - 5.%X{.oX].oXrXb.2.0.).[.[.0.w.#X<.  6 0 L L K L D L A 7 X r @X_.7._.`.`.e.5.u.$X$X].oX].@XoXw e : ) ^ ( ( ",
"^ ! ` ` ' X 5.}.`.b.'.'.`.+XqXrXY.4.k.'.`.e.oX&X2.= O 0 8 6 4 4 0 * = y #X$Xp.l.[.`.u.t.$XqX$X[.`.{._._.'.{.o [ ^ ^ ( / ",
"( ` ` ` '   u.}.k.'.p.e.e.k.$XwXrXb.3.`.{.0.5.@XrXwX2.            w +XrX$Xw.7.`.'.e.7.$XqX%X[.i.e.e.'.`.`.}.O [ ` ] ` ] ",
"` ` ' ' ' . 5.{.`.'.-     l k.k.@XrXb.3.`.{.7.5.+XeX$XOXOXOXOXOXOX$X%X%Xw.5.`.`.e.7.OXeX{.e.9.o   . i.[.`.`.  [ ' ' ] } ",
"5X5X5X5X5X1XO 7.|.- N ~.~.f o r k.oXtXn.3.).'.0.7.k.oXrXwXwXwXeXrX$X_.e.7._._.0.7.OXeX_.6.  . !.~.H.  w.}.- *X>X,X,X,X,X",
"5X<X5X5X6X5X@ 7. X  cXDX/.7XMX) o r #XrXb.l i.).0.2.w.`.l.l._.).`.p.2.5.).p.2.u.qXeXe.  X 9XxX/.MXCX. 3.#X  4X<X,X,X,X,X",
"5X<X>X>X>X4X@ 5.}.  cXKX: P.KXZX7X# w #XrX$Xb.2.0.).0.l 5.5.5.5.2.5.p.u.2.u.$XwXrX0.  ! nXGXZX@ AXDX  3.}.  4X>X<X,X<X<X",
"5X<X>X>X5X:XU.  e.r } HX  } KXZX/.bXm = #XrXqX$Xb.4.5.5.i.i.i.p.0.4.4.u.$X$XrX%X3.o 7X6XnXHXZX  BXnXX 9.- / <X<X<X<X<X<X",
"f.f.g.g.V.V.V.. 4.}.O 2Xg ,.FX, , GXDXc w k.oXrXeX$XrX.X5.7.7.4.n.$X$XwXrX%Xl.<.  9XGXbX  xXMX< 7X@ e.x.  v.J.J.B.L.J.W.",
"f.f.g.f.V.V.N.d.X b.r 3 0Xn     ; MXHXSXN . i }.OXOX$X%XqX$X$X$XeX%XOXOXoX6.  @ nXFXDXP.    @ /.! . z.- ' L.J.J.J.J.K.J.",
"f.f.f.f.f.V.V.c.. 3.|.- F 8X  2X} / KXFXCX(.3 o o . e ].OX$XOX$X@X<.. . o o !.nXDXGXCX, vX< _ !.O k.k.  H.L.J.J.J.J.J.J.",
"f.f.h.h.f.h.f.d.d.o w.|.. 0 xXDXbX7XHXZXmX0X~ ~.nX0Xg             o /.nX7XG /.mXMXDXAX^.SXMXv.  i.z.  ,.Z.J.J.J.J.J.J.J.",
"d.d.B h.d.d.d.d.B B X i.'.= S BXHX0XnXDXg M._ n DXDXZXvX3X~.] 3X7XMXSXGX^.3 ^.a nXSX0XZXSX(.  8.z.O B M.A.M.A.A.A.A.A.A.",
"d.h.B d.d.d.d.B B A.B   $X#X  Y HX}   : , MXGX, ' KXFXGXHXU.: DXHXGXKX7X@ CXSXM.  . . VXMX  6.%X. { M.M.M.A.M.A.M.A.M.M.",
"h.d.h.h.B h.B h.d.M.M.} = $X+X. ~.pXg M mXGXKX1X^.JXSXGX3Xg } g DXSXGXvXH.HXGXZXZ.n G pX: 2.#Xw } m.} M.A.M.M.A.M.M.M.d.",
"E.E.W.W.-XE.E.E.W.Q.Q./.H.. $XwX- F (.bXSXGXFXZX6XmXGX3XX MXGXn a DXSX/.MXDXFXDXBXpX~.% s.%Xw A.R.R.R.R.-XR.F.D.S.g.f.f.",
"E.W.W.W.-XR.E.E.W.W.Q././.M.  t.a.x # f NXBXVXBXaXv.k   1XKXKXSX; g F aXmXMXZXNX~.X X i.i . *XR.Q.R.R.R.I.R.D.D.g.g.f.f.",
"W.W.W.W.W.U.E.Q.W.U.E.K.U.W._ a ; n.$Xd # % + !.NX!.3 !.NXnXMXnXxXf F NXpX+ % #   x.s.y m *XD.D.D.D.D.R.R.D.D.D.f.g.d.f.",
"W.W.W.W.W.W.W.Q.W.D.W.W.U.U.U.t.a = t.t.XXa.].x % . % 3 %   .   3 % X # u z.a.s.s.r e M.d.Z.Z.S.D.I.R.R.D.R.D.D.f.f.f.d.",
"c.] ] ] ) ) ] / ) { _ ^ { ^ ^ N ^ g < , x p x t.Y.s.s.s.a.s.a.s.a.s.b.XXy.y r r r U / k k P P / I ` ` ' ' ' ' ' ' ` ` ` ",
"] ] ~ ] ) ) ) ) / ) ) ^ ^ ^ B N N N N n g 9 b a 4.x x x x x x x x x x x N U Y [ Y P P k k P P I I ( ` ' ' ' ' ' ' ' ` ( ",
"] ] ] ! ^ ! ~ ! ^ ^ ^ ^ ^ ^ ^ ^ / ^ / ( ) / ) ( ( ` n k n G P P P b b P b P P P P b P b b b n I I W ( ` ` ` ` ) ` ` ` ` ",
"] ] ~ ] ~ ^ ! ! ^ ) / ^ ^ ^ ^ { { ^ ^ / / / ` ( ' ` z k F P P P P P F b b P P P P b P b b b k I P / / ` ` ' ( ' ' ` ` ' "
};
