/* XPM */
static char *_e7130da38e04c9aa4e0d29508ef3842Ao5HQ4aOgN1e5wPQ[] = {
/* columns rows colors chars-per-pixel */
"60 60 160 2 ",
"   c black",
".  c #51211F",
"X  c #613E0A",
"o  c #512220",
"O  c #513C39",
"+  c #5A3C38",
"@  c #62400D",
"#  c #654415",
"$  c #64401E",
"%  c #54413E",
"&  c #664320",
"*  c #6F4C29",
"=  c #74463D",
"-  c #7B4A3F",
";  c #64523C",
":  c #755232",
">  c #433740",
",  c #433941",
"<  c #5D3D40",
"1  c #554242",
"2  c #5D4746",
"3  c #5C4A47",
"4  c #674E45",
"5  c #6A4F46",
"6  c #7A4D44",
"7  c #7A4F4E",
"8  c #665147",
"9  c #6C5643",
"0  c #6C5A45",
"q  c #65514C",
"w  c #6D544B",
"e  c #6E594B",
"r  c #7C5146",
"t  c #73554D",
"y  c #7A504F",
"u  c #705A4A",
"i  c #675351",
"p  c #6B5552",
"a  c #6D5A56",
"s  c #765553",
"d  c #7A5150",
"f  c #735C54",
"g  c #4F5567",
"h  c #4F5568",
"j  c #505467",
"k  c #515568",
"l  c #8C312C",
"z  c #875E31",
"x  c #876536",
"c  c #8E6435",
"v  c #856C35",
"b  c #886E34",
"n  c #86623E",
"m  c #8C643D",
"M  c #826B3C",
"N  c #896838",
"B  c #926536",
"V  c #93663A",
"C  c #966B3D",
"Z  c #9A773B",
"A  c #9B793E",
"S  c #815248",
"D  c #8A5F4F",
"F  c #846542",
"G  c #8B6643",
"H  c #836A45",
"J  c #8C6946",
"K  c #876648",
"L  c #8C654A",
"P  c #876D48",
"I  c #8D6B4B",
"U  c #926543",
"Y  c #926A44",
"T  c #986D41",
"R  c #916C4C",
"E  c #867047",
"W  c #877149",
"Q  c #8A704C",
"!  c #947744",
"~  c #9F7646",
"^  c #967947",
"/  c #9D7B42",
"(  c #91704D",
")  c #9B754B",
"_  c #957A48",
"`  c #9A7C4E",
"'  c #8D6354",
"]  c #8C6951",
"[  c #8F6658",
"{  c #946256",
"}  c #936659",
"|  c #996459",
" . c #94695C",
".. c #8D7256",
"X. c #987755",
"o. c #9C7A51",
"O. c #947659",
"+. c #9E7558",
"@. c #967B5C",
"#. c #9A7D5A",
"$. c #A07647",
"%. c #A17F47",
"&. c #A37456",
"*. c #A27C53",
"=. c #A87D52",
"-. c #A4765B",
";. c #A4795C",
":. c #A8795B",
">. c #8E5A69",
",. c #905A69",
"<. c #957963",
"1. c #987C66",
"2. c #A47B61",
"3. c #C74C42",
"4. c #C84C42",
"5. c #E77959",
"6. c #E87A5A",
"7. c #9E834C",
"8. c #9D8051",
"9. c #A3814B",
"0. c #AD8E53",
"q. c #A2815C",
"w. c #AC8E5C",
"e. c #AF9157",
"r. c #AD935D",
"t. c #B09056",
"y. c #B2935D",
"u. c #9B8266",
"i. c #9E8268",
"p. c #A08360",
"a. c #A68965",
"s. c #A38B6C",
"d. c #AB8E6D",
"f. c #B08F6C",
"g. c #AE9463",
"h. c #AE916D",
"j. c #B19160",
"k. c #B29261",
"l. c #B39563",
"z. c #B19169",
"x. c #B3926B",
"c. c #B1916D",
"v. c #B4946F",
"b. c #A89072",
"n. c #B39371",
"m. c #B49471",
"M. c #B19474",
"N. c #B89471",
"B. c #7C7F87",
"V. c #7C7F89",
"C. c #C07F92",
"Z. c #7C8087",
"A. c #7C8089",
"S. c #7F8089",
"D. c #C18093",
"F. c #C9A487",
"G. c #C9A588",
"H. c #E7D0B2",
"J. c #E8D1B3",
"K. c #C5DAE0",
/* pixels */
"Z Z / / k.l.l.A A A A y.w.l.k.k.k.k.k.l.l.l.k.j.j.j.j.j.k.k.z.z.v.m.m.m.d.;.q.8.<.X X # # ..@.u.u.b.b.M.M.M.x.x.z.z.z.f.",
"Z Z / / k.k.k./ A Z A y.k.l.k.k.k.k.k.l.l.k.g.j.j.j.k.k.      z.m.m.m.m.h.u.u.@.8.@ X # # O...u.u.b.b.M.M.M.x.M.z.z.x.f.",
"/ %.9.9.k.k.y.%.%.%.~ w.w.k.y.j.j.k.k.k.k.k.k.k.j.j.y.k.j j j   f.c.d.x.a.u.q.<.<.X X X @ @.@.i.u.s.s.b.h.h.x.n.N.n.N.N.",
"%./ 9.9.g.k.k.%.%.9.` w.t.k.j.j.k.y.l.k.k.k.j.k.j.j.j.  k A.j j   c.f.f.a.q.q.7.@.X X X @ @.@.u.u.s.s.b.h.h.x.h.f.n.N.N.",
"D D ' [ }  . .' ' D ' ' }  .} } } } [ [ [ }  . . . .  j A.A.B.j k   Y U { O.O.1.<.$ $ & & <.<.<.<.....L L L G G m G V G ",
"D ' [ '  . . .' ' ' L '       } } } [ [ [ } }  . . .  j S.A.S.S.j   Y I ( O.O.<.<.$ & & &       <.....] L L G m m G G V ",
"' '  . .' ' '  . . .[   j k j   D D D D D D ' '     j j A.B.A.S.j j     L O.O.1.<.$ & &   k h j   ] ] K K G G G Y J Y Y ",
"( I R ( G J G I R R   j j g k j   I R I I I R   l   j j S.A.V.S.j k   l   O.@.p.i.* *   j j k j j ..I I J I Y I Y T Y Y ",
"( I R ( J G G Q ( (   k S.A.k j   I I I I I   l 4.  j j V.S.S.A.k j   3.l   @.i.p.* *   k j V.V.g I ..I J P R Y Y Y Y Y ",
"L J G L G F n n n   k A.V.B.S.j k   J G J   l 3.  , j j B.S.A.B.k j ,   3.l   i.2.:   j j A.B.V.V.  I J G G m G N x z z ",
"J J J K F G n n   j k A.A.A.A.j j   J J   l l 4.  , k j A.S.A.j j j ,   3.l l   i.:   j k V.V.V.A.j   L G G G m x N z z ",
"` 7.^ ^ o.7.`   j j h j j j j j ,         3.4.6.  , , j j j j j k , ,   6.3.4.        , j j j j j g j   8.#.q.q.;.q.q.:.",
"7.8.^ _ 8.o.`   , k g j j g j j ,   k j j   5.5.  , , k j j j j k , ,   6.6.  k k k   , j k k j j j ,   8.u.q.;.q.q.:.q.",
"_ _ ! ! 8.8.`   , k k g j j j ,   j A.A.j   3.5.  , , , j j j j , , ,   5.4.  j A.A.k   , j g g j j ,   X.X.X.X.` ` ) o.",
"8._ _ ! 8.8.8.  , , , g g j ,   j S.A.A.j j   6.6.  , ,         , ,   6.6.  j j V.A.V.j   , j j k , >   ` X.` o.` o.) ) ",
"y y d 7 y y y   , , , , > ,   k j A.A.A.h k   4.6.      j k j j       5.4.  j j A.A.V.k k   , , O , ,   6 6 t 6 r r 6 - ",
"7 y d y y y y   , , , , ,   j j V.A.B.j j h h   5.5.  j g h j k j   6.6.  j j j j A.A.A.j j   > , , ,   r 6 r r r r - - ",
"y y y d y d   4.  , , , ,   j j j j j j j j j   4.  j g A.A.A.j j k   4.  j j g j j j j g j   , , ,   3.  = = = r r S S ",
"y y d d y y   6.  , , , ,   j j k j j j j j k     h j j Z.A.A.A.j j j     j k k j j j j k k   , , ,   6.  = = = r r S S ",
"r.r.r.r.r.r.  6.5.        , g j j j j j j j ,     g j V.S.S.A.S.A.j j     , j h k j j j k k ,       6.5.  7.7.7.w.w.g.g.",
"r.r.    r.r.  4.6.6.5.4.  , g j j j h g j > ,   j j j A.A.A.A.A.S.j k j   , , j j j h h g g ,   3.5.5.3.  7.7.7.    g.g.",
"r.  O k   g.l   4.3.3.4.  , , k j j h k > > ,   j j j V.S.S.A.Z.A.j j j   , > , j j h h g > ,   3.3.3.  l   9.  g O   g.",
"  > h h j   l l l l 3.4.  , , , , , , , > ,   , j j j Z.B.A.V.A.A.k k j ,   , , O , , , > , ,   4.l l l l     k j k ,   ",
"  > h h j , l l l 4.3.5.  , , , , , , O , >   , j j j j A.V.S.A.j g j j >   , , , > , , , , >   5.4.l l l   , j j j ,   ",
"  h g k j ,   l 3.3.3.6.6.  , , , , , ,       , k j j j V.S.A.A.j j j k ,       , , , , , ,   6.6.3.4.l   , , g j k j   ",
"  k j j j k ,   4.4.4.l 4.6.6.          l     , , j j j B.A.S.j j g j , ,     l           5.6.4.l 4.4.  , , k j j j j   ",
"L   k j g j ,   4.3.3.4.l 3.6.6.6.6.6.l 4.3.  , > , j j j j j j j j , , ,   4.4.l 5.6.5.6.6.3.l 3.4.4.  > j k j j j   N ",
"R   g j j j ,   4.3.3.3.3.3.3.3.4.3.3.4.4.4.4.  , , , , j k j j , , , ,   3.3.4.4.4.3.4.3.3.4.3.3.4.4.  , j k g j j   x ",
"L   k j j j ,   3.4.3.3.4.4.3.4.l l 4.3.l 3.3.  , , , , , , , , , , , ,   4.3.l 3.3.l l 4.3.4.3.3.3.4.  > , k k j j   N ",
"R   , k j g ,   3.4.4.3.3.4.3.3.4.3.3.3.3.l 4.3.  , , , , , , , , , ,   3.3.l 3.4.4.4.3.3.4.3.3.3.4.3.  , , j k j ,   N ",
"L L L   , , ,   3.l 3.4.3.3.3.4.3.3.3.3.3.3.l 4.6.6.4.            3.6.6.4.l 4.3.4.4.4.4.4.3.3.4.3.l 3.  , , , ,   J R R ",
"D D L   , ,   4.l l l 3.4.4.3.4.3.4.4.4.4.4.4.l 4.6.6.6.6.6.6.6.5.6.6.4.l 4.3.3.4.4.4.3.3.3.3.3.3.l l 4.  , , ,   J U Y ",
"J L { I   ,   l l l l 4.4.3.l l l l 3.4.3.3.4.4.l 4.4.5.5.5.6.6.5.3.3.l 3.4.4.3.3.4.l l l l 4.4.3.l l l   , ,   G m I I ",
"U L ] ] ]   l l l l l l l l 6.6.6.6.l l l l l l l l l 4.3.4.3.4.3.l l l l l l l l l 5.5.5.5.l l l l l l l     I G G U R ",
"$.$.$.$.$.~ l l l l   4.6.6.6.6.5.5.6.6.6.6.5.6.l l l l l l l l l l l l 5.5.6.6.5.5.5.5.5.5.5.5.3.l l l l   :.&.&.+.:.:.",
"$.$.$.$.$.$.l l l   6.4.3.3.4.3.3.5.5.6.6.5.6.5.6.5.5.5.5.6.6.6.6.6.5.6.5.5.6.6.5.5.5.4.4.4.4.4.3.  l l l   &.&.) &.:.:.",
"=.=.=.=.=.=.l l l 6.4.6.3.          4.4.4.3.4.3.5.6.5.6.6.5.5.5.5.5.5.5.4.4.4.3.3.3.          3.6.6.l l l   :.:.&.&.-.:.",
"q w i i i q l l   3.3.    >.G.G.>.>.            3.3.3.3.3.4.3.3.4.4.3.4.            >.>.F.F.>.    4.  l l   w u 5 5 w w ",
"q q p p i i l   3.4.  >.>.-.H.H.G.  >.-.G.G.-.>.          o             >.>.F.F.G.>.  G.H.J.-.>.,.4.4.  l   f u 5 5 w 8 ",
"s p p p p p   4.4.l >.    2.H.H.G..   F.H.H.G.>.>.>.G.G.,.>.>.G.G.G.>.>.>.G.J.H.G.  o G.H.J.2.    l 4.4.  f f f s p f f ",
"p w p p p a   4.3.l       G.J.J.  .   J.J.H.J.  >.F.J.J.G.  G.J.H.H.F.,.  J.H.H.J.  .   J.J.G.    l 3.3.  f f f f f u f ",
"l.l.l.y.g.g.  4.3.l   G.o o J.J.  o   J.J.J.G.    J.J.J.-.    J.H.H.H.    H.J.J.G.  .   J.H.. . G.l 4.4.  0.y.t.e.e.t.t.",
"l.y.l.g.h.g.x.  4.l   J.  o     . .   G.H.J.  .   J.J.J.  .   J.H.J.J.  .   J.J.    . .     .   H.l 4.  0.0.t.y.e.e.t.t.",
"y.g.w.w.k.r.h.  3.l   J.J.  o o K.o .   G.G.  .   2.J.J.o o .   J.J.  o o   G.J.  . . . . .   H.H.l 3.  e.0.y.y.y.t.y.y.",
"r.y.w.r.w.w.z.  4.4.  J.J.F.  . K.. . .     . o o   J.J.o . .   F.J.  . . K.  K.. o o o .   G.H.J.4.4.  0.0.y.y.y.y.y.y.",
"V V V V Y U Y   4.3.  >.G.G.  . o o . o . K.o o . .     . o . o     o o . K.K.. . o . . .   F.G.>.3.4.  { | { { } { +.| ",
"V B V V Y C U L   4.3.  ,.>.>.    . . . . K.o . . . . . . . o o o o o . . K.K.. . o .     >.>.>.  4.  | {  .{ { { { | | ",
"B V V V U C U L   4.4.  >.>.  J.J.  . . . K.. . . . . . . . . . . . . . . K.. . . .   J.J.  >.>.  4.   .{ { { { { { { | ",
"B V B B C V U L J   4.4.  >.G.H.H.  . . . . K.. o . o . . o o . . . o . . K.o . . .   H.J.G.>.  3.  | } { { { { { { { { ",
"b b b b v v M M M W   4.3.  >.J.J.  >.>.    ;.G.  o . o . o o . o . .   G.-.    >.>.  H.H.>.  3.3.H H H E E P P W Q Q Q ",
"b b b b v v x M M W W   6.4.  G.G.  >.>.  G.H.H.  o o o o   . . . . .   J.J.F.  >.>.  G.G.  4.5.  H H H P P Q P W Q W Q ",
"b b b b v v M M M H E ..  6.4.  D.>.>.>.  G.H.H.          G.            H.H.G.  >.>.>.D.  4.6.  H H u P P P Q P K H n n ",
":.:.-.-.-.:.-.;.-.;.;.1.2.  5.  >.>.>.;.G.H.H.J.-.  >.>.G.J.G.  >.>.  -.J.J.H.F.-.>.>.>.  6.  *.o.*.*.*.*.*.~ ) C ! B c ",
"&.-.-.-.:.-.;.;.;.;.;.;.2.2.  5.    >.>.C.H.J.J.F.>.>.>.J.H.H.2.  >.>.G.H.J.H.C.>.>.    6.  *.o.;.*.*.*.*.*.o.) C T B B ",
":.&.&.-.&.-.&.+.-.+.-.+.+.+.+.  6.6.    >.D.G.G.C.D.>.C.H.H.H.;.D.>.D.D.G.F.C.,.    5.5.  ) ! ) ) ) o.*.) &.) ) C C c c ",
"&.&.-.&.&.-.&.-.-.+.+.+.+.+.) z     6.6.      D.C.>.>.>.G.G.G.D.>.>.,.C.C.      5.5.    m ) ) ) ) o.~ *.*.) ) ) C C c b ",
"d s s s t t t u u u u 9 0 9 9 ; ; ;     6.6.6.                            6.6.6.    % O O 1 1 3 3 i i a a a a a p p q p ",
"d s s s t t s u u u u 9 9 9 0 ; ; ; 8 u       5.5.6.6.5.5.6.6.6.6.6.6.6.6.      1 1 O O O 1 1 4 3 p i a a a a a p p q p ",
"s s s t 5 7 5 5 5 9 9 9 ; 9 0 0 0 0 0 0 e 8 w                             1 1 1 1 % 1 1 1 % % 2 2 q 8 p i p p i p p a p ",
"s s t t w w 6 5 - u u 9 0 9 0 0 0 8 9 e e 8 e w s p + + < < 1 1 1 1 1 1 O 1 1 1 2 % % % % % O 2 2 q q p p p i p p p p p "
};
